<svg width="14" height="14" viewBox="0 0 14 14" fill="none" xmlns="http://www.w3.org/2000/svg">
<path d="M9.91677 3.64583C10.1584 3.64583 10.3542 3.84176 10.3543 4.08333V11.1938L12.0821 9.46606C12.2529 9.29521 12.5304 9.29521 12.7013 9.46606C12.8719 9.63693 12.872 9.91395 12.7013 10.0847L10.2261 12.5593C10.2077 12.5777 10.188 12.5939 10.1674 12.6083C10.1646 12.6103 10.1618 12.6127 10.1589 12.6146L10.1572 12.6152C10.151 12.6192 10.1441 12.6223 10.1378 12.626C10.1206 12.6361 10.1034 12.6462 10.0848 12.6539C10.0837 12.6543 10.0825 12.6551 10.0814 12.6556C10.0552 12.6662 10.028 12.6742 10.0005 12.6795C9.99846 12.6799 9.99631 12.6797 9.99425 12.6801C9.96912 12.6846 9.94319 12.6875 9.91677 12.6875C9.89069 12.6875 9.86527 12.6845 9.84044 12.6801C9.83696 12.6795 9.83308 12.6791 9.82962 12.6784C9.77009 12.6663 9.71535 12.6419 9.66726 12.6083C9.65833 12.6021 9.64904 12.5959 9.64049 12.5889C9.62916 12.5797 9.61802 12.5699 9.60745 12.5593L7.13284 10.0847C6.96201 9.91389 6.96206 9.63692 7.13284 9.46606C7.30369 9.29522 7.58064 9.29521 7.75149 9.46606L9.47927 11.1938V4.08333C9.47933 3.84177 9.6752 3.64585 9.91677 3.64583Z" fill="#949BA8"/>
<path d="M4.16034 1.31991C4.16373 1.32049 4.16723 1.32093 4.1706 1.32161C4.23019 1.33366 4.28539 1.3581 4.33352 1.39168C4.34237 1.39786 4.35126 1.40414 4.35973 1.41105C4.37107 1.42032 4.38218 1.43009 4.39277 1.44067L6.86795 3.91528C7.0387 4.08604 7.03851 4.36306 6.86795 4.53394C6.69709 4.70479 6.42015 4.70479 6.24929 4.53394L4.52094 2.80615V9.91667C4.52088 10.1582 4.32503 10.3542 4.08344 10.3542C3.8419 10.3541 3.646 10.1582 3.64594 9.91667V2.80615L1.91816 4.53394C1.7473 4.70479 1.47036 4.70479 1.29951 4.53394C1.1287 4.36308 1.12867 4.08612 1.29951 3.91528L3.77411 1.44067C3.79247 1.42233 3.81225 1.40608 3.83279 1.39168C3.8356 1.38972 3.83848 1.38732 3.84133 1.38542L3.84304 1.38485C3.84918 1.3808 3.85612 1.37773 3.86241 1.37402C3.87957 1.36391 3.89684 1.35385 3.91539 1.34611C3.91649 1.34565 3.9177 1.34485 3.91881 1.3444C3.94507 1.33376 3.97221 1.32581 3.9997 1.32048C4.00174 1.32008 4.00392 1.32024 4.00597 1.31991C4.03106 1.31543 4.05706 1.31251 4.08344 1.3125C4.10958 1.3125 4.13547 1.31551 4.16034 1.31991Z" fill="#949BA8"/>
</svg>
