<svg width="20" height="20" viewBox="0 0 20 20" fill="none" xmlns="http://www.w3.org/2000/svg">
<path d="M10.7415 4.67771C11.3393 3.64226 12.6634 3.28748 13.6988 3.8853V3.8853C13.9577 4.03476 14.0464 4.36576 13.8969 4.62463L10.1084 11.1866L7.7648 9.83355L10.7415 4.67771Z" fill="#4C586A"/>
<path d="M11.6425 5.82291C12.0624 5.09556 12.9925 4.84635 13.7198 5.26628L13.809 5.31775C14.0031 5.42985 14.0696 5.6781 13.9575 5.87225L13.4001 6.8377L11.6425 5.82291V5.82291Z" fill="#CFDBE9"/>
<path d="M3.62451 8.88555L2.45264 8.20977L6.12158 1.8543C6.30839 1.53073 6.72281 1.41946 7.04639 1.60626C7.36997 1.79307 7.48028 2.20748 7.29346 2.53106L7.14795 2.78204C8.08703 3.87449 10.0875 5.44406 13.1528 5.91387L18.3843 13.5145C18.8216 14.1499 18.854 14.9812 18.4683 15.6492L17.3052 17.6639L9.10303 12.9285L11.7993 8.25762L9.14502 12.8553L3.28564 9.47247L3.62451 8.88555ZM5.93994 4.87383L5.94092 4.87481L5.93994 4.87383Z" fill="#CFDBE9"/>
<path fill-rule="evenodd" clip-rule="evenodd" d="M15.6159 8.75202C15.637 9.01004 15.445 9.23632 15.187 9.25744L12.9254 9.44256C12.6674 9.46368 12.4411 9.27164 12.42 9.01362C12.3988 8.7556 12.5909 8.52931 12.8489 8.50819L15.1105 8.32307C15.3685 8.30195 15.5948 8.494 15.6159 8.75202Z" fill="#4C586A"/>
<path fill-rule="evenodd" clip-rule="evenodd" d="M16.9692 10.7816C16.9903 11.0396 16.7983 11.2659 16.5402 11.287L14.2787 11.4722C14.0206 11.4933 13.7944 11.3012 13.7732 11.0432C13.7521 10.7852 13.9442 10.5589 14.2022 10.5378L16.4638 10.3527C16.7218 10.3316 16.9481 10.5236 16.9692 10.7816Z" fill="#4C586A"/>
<path d="M17.3471 17.5911L17.1713 17.8967C17.0498 18.1071 16.8631 18.2562 16.6518 18.3342C16.5985 19.8387 0.43819 10.4736 1.80606 9.65649C1.79556 9.46901 1.83702 9.27658 1.93789 9.10181L2.79043 7.62427L17.3471 17.5911Z" fill="#6B7683"/>
</svg>
