<svg width="134" height="22" viewBox="0 0 134 22" fill="none" xmlns="http://www.w3.org/2000/svg">
<path d="M27.2667 0H24.4033C21.0533 0 18.3367 2.71666 18.3367 6.06666V15.93C18.3367 19.28 21.0533 21.9967 24.4033 21.9967H27.2667C30.6167 21.9967 33.3333 19.28 33.3333 15.93V6.06666C33.3333 2.71666 30.6167 0 27.2667 0ZM28.6667 15.93C28.6667 17.26 27.59 18.3367 26.26 18.3367H25.4033C24.0767 18.3367 22.9967 17.26 22.9967 15.93V6.07333C22.9967 4.74333 24.0733 3.66667 25.4033 3.66667H26.26C27.5867 3.66667 28.6667 4.74333 28.6667 6.07333V15.93Z" fill="#083CCC"/>
<path d="M76.9333 0H73.7333C70.3833 0 67.6667 2.71666 67.6667 6.06666V15.9333C67.6667 19.2833 70.3833 22 73.7333 22H76.9333C80.2833 22 83 19.2833 83 15.9333V6.06666C83 2.71666 80.2833 0 76.9333 0ZM78.3333 15.9333C78.3333 17.26 77.26 18.3333 75.9333 18.3333H74.7367C73.41 18.3333 72.3367 17.26 72.3367 15.9333V6.07C72.3367 4.74333 73.41 3.66999 74.7367 3.66999H75.9333C77.26 3.66999 78.3333 4.74333 78.3333 6.07V15.9333Z" fill="#083CCC"/>
<path d="M115 4.66667V0.666672H101.667V21.3333H115V17.3333H106.333V12.6667H114.297V8.66667H106.333V4.66667H115Z" fill="#083CCC"/>
<path d="M47.06 10.48C48.4133 9.74666 49.3333 8.31334 49.3333 6.66667V5.33334C49.3333 2.75667 47.2433 0.666672 44.6667 0.666672H35.3333V21.3333H45C47.76 21.3333 50 19.0933 50 16.3333V14.3333C50 12.49 48.7533 10.9433 47.06 10.48ZM40 4.00001H43C43.92 4.00001 44.6667 4.74667 44.6667 5.66667V6.69C44.6667 7.37666 44.2467 7.99333 43.6067 8.24333L40 9.65V4.00001ZM45.3333 16.3333C45.3333 17.2533 44.5867 18 43.6667 18H40V13.37L43.07 12.1933C44.16 11.7767 45.3333 12.58 45.3333 13.75V16.3333Z" fill="#083CCC"/>
<path d="M67.6667 0.666672H63L56.6667 9.59V0.666672H52V21.3333H56.6667V12.41L63 21.3333H67.6667L60.6667 11L67.6667 0.666672Z" fill="#083CCC"/>
<path d="M17.3333 0.666672H6V4.67H10V17.9933H4.66667V13.4067H0V15.99C0 19.3067 2.68667 21.9967 6 21.9967H8.66667C11.98 21.9967 14.6667 19.3067 14.6667 15.99V4.67H17.3333V0.666672Z" fill="#083CCC"/>
<path d="M133.333 21.3333L128.667 0.666672H121L116.333 21.3333H120.667L121.87 16H127.793L128.997 21.3333H133.333ZM122.773 12L124.43 4.66667H125.237L126.893 12H122.773Z" fill="#083CCC"/>
<path d="M97.1333 13.3367C96.91 12.7833 96.54 12.32 96.0833 11.9767C97.8433 11.2633 99 9.55334 99 7.65334V5.33334C99 2.75667 96.91 0.666672 94.3333 0.666672H85V21.3333H89.6667V14.53L92.4966 13.4033L95.6667 21.33H100.333L97.1333 13.3333V13.3367ZM94.6667 7.71667C94.6667 8.41 94.2367 9.03333 93.5867 9.27667L89.6667 10.7533V4.00001H93C93.92 4.00001 94.6667 4.74667 94.6667 5.66667V7.71667Z" fill="#083CCC"/>
</svg>
