<svg width="68" height="13" viewBox="0 0 68 13" fill="none" xmlns="http://www.w3.org/2000/svg">
<path d="M27.1123 4.63422C27.0978 4.67169 27.0459 4.67169 27.0313 4.63422C26.5467 3.44243 25.2195 2.68457 23.6699 2.68457V4.39248C25.0454 4.39248 25.9604 5.17089 25.9604 6.28653C25.9604 7.40217 25.0454 8.18058 23.6699 8.18058V9.88849C25.2195 9.88849 26.5467 9.12942 27.0313 7.93763C27.0459 7.90016 27.0978 7.90016 27.1123 7.93763C27.597 9.12942 28.9242 9.88849 30.4738 9.88849V8.18058C29.0982 8.18058 28.1832 7.40217 28.1832 6.28653C28.1832 5.17089 29.0982 4.39248 30.4738 4.39248V2.68457C28.9242 2.68457 27.597 3.44364 27.1123 4.63422Z" fill="#182432"/>
<path d="M43.5193 2.56247C42.7276 2.56247 41.9806 2.96497 41.6071 3.40977C41.5805 3.4412 41.5298 3.42307 41.5298 3.38197V0H39.927V9.88725H41.5298V6.3143C41.5298 5.26635 42.2054 4.18214 43.338 4.18214C43.9085 4.18214 44.3146 4.35015 44.5793 4.69705C44.8815 5.09351 45.029 5.73171 45.029 6.64791V9.88725H46.6317V6.32881C46.6317 5.17449 46.3416 4.2184 45.7917 3.56207C45.2453 2.90816 44.4585 2.56368 43.5181 2.56368L43.5193 2.56247Z" fill="#182432"/>
<path d="M6.84614 7.88686C6.83526 7.93158 6.7712 7.93158 6.76153 7.88686L5.72446 3.39167H4.10478L3.06771 7.88686C3.05683 7.93158 2.99398 7.93158 2.9831 7.88686L1.72604 2.68457H0L1.85174 9.88728H3.94282L4.87231 5.71722C4.88198 5.67129 4.94725 5.67129 4.95692 5.71722L5.88642 9.88728H7.97749L9.82924 2.68457H8.1032L6.84614 7.88686Z" fill="#182432"/>
<path d="M20.1045 3.57539C20.0779 3.60682 20.0271 3.58869 20.0271 3.54759V2.68457H18.4244V9.88728H20.0271V6.43641C20.0271 5.38846 20.7028 4.30424 21.8354 4.30424H22.8398V2.68457H22.0167C21.225 2.68457 20.478 3.13058 20.1045 3.57539Z" fill="#182432"/>
<path d="M57.5761 3.57539C57.5495 3.60682 57.4987 3.58869 57.4987 3.54759V2.68457H55.896V9.88728H57.4987V6.43641C57.4987 5.38846 58.1744 4.30424 59.307 4.30424H60.3114V2.68457H59.4883C58.6966 2.68457 57.9496 3.13058 57.5761 3.57539Z" fill="#182432"/>
<path d="M13.7466 2.5625C11.693 2.5625 10.0237 4.23294 10.0237 6.28533C10.0237 8.33772 11.6942 10.0082 13.7466 10.0082C15.799 10.0082 17.4694 8.33772 17.4694 6.28533C17.4694 4.23294 15.799 2.5625 13.7466 2.5625ZM13.7466 8.40904C12.5765 8.40904 11.6241 7.45657 11.6241 6.28654C11.6241 5.11651 12.5765 4.16404 13.7466 4.16404C14.9166 4.16404 15.8691 5.11651 15.8691 6.28654C15.8691 7.45657 14.9166 8.40904 13.7466 8.40904Z" fill="#182432"/>
<path d="M35.3545 2.56273C34.541 2.56273 33.7324 2.97369 33.3504 3.41367C33.3238 3.44388 33.2743 3.42575 33.2743 3.38466V2.6836H31.6715V12.7365H33.2743V9.18043C33.2743 9.13933 33.3238 9.1212 33.3504 9.15141C33.7336 9.59259 34.541 10.0072 35.3545 10.0072C37.3972 10.0072 38.9721 8.3718 38.9721 6.28435C38.9721 4.19691 37.3984 2.56152 35.3545 2.56152V2.56273ZM35.2626 8.40927C34.1046 8.40927 33.1884 7.4568 33.1884 6.28677C33.1884 5.11674 34.1046 4.16427 35.2626 4.16427C36.4205 4.16427 37.3851 5.11674 37.3851 6.28677C37.3851 7.4568 36.4326 8.40927 35.2626 8.40927Z" fill="#182432"/>
<path d="M62.3861 6.92963H67.9135C67.9498 6.72052 67.9438 6.50658 67.9438 6.2878C67.9438 4.26563 66.3422 2.57343 64.32 2.56255C62.258 2.55167 60.5767 4.22574 60.5767 6.28538C60.5767 8.34503 62.2471 10.0082 64.2995 10.0082C65.565 10.0082 66.6843 9.32046 67.3575 8.35228L65.9554 7.52673C65.5771 8.05735 64.9594 8.40667 64.2922 8.40667C63.4183 8.40667 62.6496 7.80836 62.3426 6.98643C62.3317 6.95743 62.3535 6.92721 62.3837 6.92721L62.3861 6.92963ZM62.345 5.58433C62.652 4.76241 63.4208 4.16409 64.2947 4.16409C65.1686 4.16409 65.9119 4.76241 66.2177 5.58433C66.2286 5.61334 66.2068 5.64356 66.1766 5.64356H62.3885C62.3583 5.64356 62.3365 5.61334 62.3474 5.58433H62.345Z" fill="#182432"/>
<path d="M51.332 2.56296C49.2699 2.55208 47.5886 4.22615 47.5886 6.28579C47.5886 8.34544 49.2591 10.0086 51.3115 10.0086C52.577 10.0086 53.6962 9.32087 54.3695 8.35269L52.9674 7.52714C52.5891 8.05776 51.9714 8.40708 51.3042 8.40708C50.4303 8.40708 49.6616 7.80877 49.3545 6.98684C49.3437 6.95784 49.3654 6.92762 49.3956 6.92762H54.9231C54.9593 6.71851 54.9533 6.50457 54.9533 6.28579C54.9533 4.26362 53.3518 2.57143 51.3296 2.56055L51.332 2.56296ZM53.1862 5.64397H49.3981C49.3678 5.64397 49.3461 5.61375 49.357 5.58474C49.664 4.76282 50.4327 4.16451 51.3066 4.16451C52.1805 4.16451 52.9239 4.76282 53.2297 5.58474C53.2406 5.61375 53.2188 5.64397 53.1886 5.64397H53.1862Z" fill="#182432"/>
</svg>
