<svg width="28" height="28" viewBox="0 0 28 28" fill="none" xmlns="http://www.w3.org/2000/svg">
<path d="M20.7464 2.8418H7.2458C4.81246 2.8418 2.83984 4.81441 2.83984 7.24775V20.7483C2.83984 23.1817 4.81246 25.1543 7.2458 25.1543H20.7464C23.1797 25.1543 25.1523 23.1817 25.1523 20.7483V7.24775C25.1523 4.81441 23.1797 2.8418 20.7464 2.8418Z" fill="#E1E1E7"/>
<rect x="13.3789" y="2.8418" width="1.23958" height="22.3125" fill="white"/>
<rect x="25.1523" y="13.3779" width="1.23958" height="22.3125" transform="rotate(90 25.1523 13.3779)" fill="white"/>
<rect x="22.1797" y="8.04785" width="1.4875" height="5.20625" rx="0.156281" transform="rotate(90 22.1797 8.04785)" fill="#674DFF"/>
<path d="M21.7744 20.5498C21.8607 20.5498 21.9307 20.6197 21.9307 20.7061V21.8096C21.9307 21.8959 21.8607 21.9658 21.7744 21.9658H17.1289C17.0426 21.9658 16.9727 21.8958 16.9727 21.8096V20.7061C16.9727 20.6198 17.0426 20.5499 17.1289 20.5498H21.7744ZM21.7744 17.7158C21.8606 17.7158 21.9305 17.7859 21.9307 17.8721V18.9766C21.9307 19.0629 21.8607 19.1328 21.7744 19.1328H17.1289C17.0426 19.1328 16.9727 19.0628 16.9727 18.9766V17.8721C16.9729 17.786 17.0428 17.7159 17.1289 17.7158H21.7744Z" fill="#674DFF"/>
<path d="M8.81934 5.81641C8.90547 5.81655 8.9755 5.88651 8.97559 5.97266V7.8623H10.8643C10.9506 7.8623 11.0205 7.93224 11.0205 8.01855V9.06934C11.0204 9.15555 10.9505 9.22559 10.8643 9.22559H8.97559V11.1143C8.97559 11.2005 8.90552 11.2704 8.81934 11.2705H7.76855C7.68224 11.2705 7.61133 11.2006 7.61133 11.1143V9.22559H5.72266C5.63647 9.22553 5.56652 9.15551 5.56641 9.06934V8.01855C5.56641 7.93228 5.63639 7.86236 5.72266 7.8623H7.61133V5.97266C7.61142 5.88642 7.6823 5.81641 7.76855 5.81641H8.81934Z" fill="#674DFF"/>
<path d="M9.72057 17.3748C9.78156 17.3139 9.88023 17.3139 9.94128 17.3748L10.743 18.1766C10.8041 18.2376 10.8041 18.3363 10.743 18.3973L9.32018 19.8202L10.744 21.244C10.805 21.305 10.805 21.4046 10.744 21.4657L9.94225 22.2674C9.88122 22.3285 9.78161 22.3285 9.72057 22.2674L8.29675 20.8436L6.87292 22.2674C6.81188 22.3284 6.71321 22.3284 6.65221 22.2674L5.85046 21.4657C5.78959 21.4046 5.78956 21.306 5.85046 21.245L7.27428 19.8211L5.85046 18.3973C5.78943 18.3363 5.78943 18.2367 5.85046 18.1756L6.65221 17.3739C6.71325 17.3129 6.81288 17.3129 6.87389 17.3739L8.29772 18.7977L9.72057 17.3748Z" fill="#674DFF"/>
</svg>
