<svg width="24" height="24" viewBox="0 0 24 24" fill="none" xmlns="http://www.w3.org/2000/svg">
<g clip-path="url(#clip0_592_60375)">
<path d="M2 6.60016C2 5.80487 2.63959 5.16016 3.42857 5.16016H20.5714C21.3604 5.16016 22 5.80487 22 6.60016V8.04016H2V6.60016Z" fill="#CFDBE9"/>
<path d="M2 8.03961C2 7.24432 2.63959 6.59961 3.42857 6.59961H20.5714C21.3604 6.59961 22 7.24432 22 8.03961V9.47961H2V8.03961Z" fill="#EEEEF1"/>
<path d="M10.5723 3.72C10.5723 3.32235 10.8921 3 11.2866 3H15.5723C15.9668 3 16.2866 3.32236 16.2866 3.72V5.16H10.5723V3.72Z" fill="#44D48C"/>
<path d="M6.28516 5.16043C6.28516 4.76278 6.60495 4.44043 6.99944 4.44043H11.2852C11.6796 4.44043 11.9994 4.76278 11.9994 5.16043V6.60043H6.28516V5.16043Z" fill="#8C80FF"/>
<path d="M2 6.59988C2 6.20224 2.3198 5.87988 2.71429 5.87988H7C7.39449 5.87988 7.71429 6.20224 7.71429 6.59988V8.03988H2V6.59988Z" fill="#FF4C77"/>
<path d="M2 8.04004H20.5714C21.3604 8.04004 22 8.68475 22 9.48004V19.56C22 20.3553 21.3604 21 20.5714 21H3.42857C2.63959 21 2 20.3553 2 19.56V8.04004Z" fill="#FFCE22"/>
</g>
<defs>
<clipPath id="clip0_592_60375">
<rect width="20" height="18" fill="white" transform="translate(2 3)"/>
</clipPath>
</defs>
</svg>
