<svg width="24" height="24" viewBox="0 0 24 24" fill="none" xmlns="http://www.w3.org/2000/svg">
<path d="M2.8125 11.0063C2.8125 10.1936 3.25788 9.44044 3.98579 9.02231L10.6315 5.20472C11.3968 4.76509 12.3529 4.76509 13.1182 5.20472L19.764 9.02231C20.4919 9.44044 20.9372 10.1936 20.9372 11.0063V20.6863C20.9372 21.9641 19.8553 23 18.5206 23H14.1405H9.60928H5.22913C3.89446 23 2.8125 21.9641 2.8125 20.6863V11.0063Z" fill="#E1E1E7"/>
<path fill-rule="evenodd" clip-rule="evenodd" d="M10.5942 4.03432C11.3778 3.54455 12.3722 3.54455 13.1558 4.03432L22.1819 9.67565C22.7478 10.0293 22.9199 10.7748 22.5662 11.3407C22.2125 11.9066 21.467 12.0786 20.9011 11.725L11.875 6.08362L2.84888 11.725C2.28299 12.0786 1.53751 11.9066 1.18383 11.3407C0.830141 10.7748 1.00217 10.0293 1.56807 9.67565L10.5942 4.03432Z" fill="#8C80FF"/>
<path d="M9.45703 22.9997V18.5057C9.45703 17.6532 9.98362 16.958 10.6293 16.958H13.1181C13.7638 16.958 14.2904 17.6532 14.2904 18.5057V22.9997H9.45703Z" fill="#B5B4C5"/>
</svg>
