<svg width="24" height="24" viewBox="0 0 24 24" fill="none" xmlns="http://www.w3.org/2000/svg">
<g clip-path="url(#clip0_592_60344)">
<path d="M20.076 6.3584H3.92855C2.77607 6.3584 1.8418 7.2954 1.8418 8.45125V19.6574C1.8418 20.8133 2.77607 21.7503 3.92855 21.7503H20.076C21.2285 21.7503 22.1628 20.8133 22.1628 19.6574V8.45125C22.1628 7.2954 21.2285 6.3584 20.076 6.3584Z" fill="#9A4E1B"/>
<path d="M13.8711 2.25L10.1116 2.25001C8.62662 2.25001 7.41211 3.18566 7.41211 4.68055V7.14989H8.63766V5.47229C8.63766 4.65841 8.53832 3.35731 10.1116 3.35731H13.8711C15.4389 3.35731 15.3451 4.65841 15.3451 5.47229V7.14989H16.5706V4.68055C16.5706 3.1912 15.3616 2.25 13.8711 2.25Z" fill="#72350C"/>
<path d="M20.347 5.70996H3.653C2.46393 5.70996 1.5 6.67671 1.5 7.86925V12.293C1.5 13.4856 2.46393 14.4523 3.653 14.4523H20.347C21.5361 14.4523 22.5 13.4856 22.5 12.293V7.86925C22.5 6.67671 21.5361 5.70996 20.347 5.70996Z" fill="#72350C"/>
<path d="M13.8005 12.8965V14.5409C13.8005 15.5319 12.989 16.3458 12.0009 16.3458C11.0127 16.3458 10.2012 15.5319 10.2012 14.5409V12.8965H13.8005Z" fill="#FFCE22"/>
</g>
<defs>
<clipPath id="clip0_592_60344">
<rect width="21" height="19.5" fill="white" transform="translate(1.5 2.25)"/>
</clipPath>
</defs>
</svg>
