<svg width="24" height="24" viewBox="0 0 24 24" fill="none" xmlns="http://www.w3.org/2000/svg">
<path fill-rule="evenodd" clip-rule="evenodd" d="M19.5 11.25H4.5V18C4.5 19.6569 7.85786 21 12 21C16.1421 21 19.5 19.6569 19.5 18V11.25Z" fill="#222222"/>
<path d="M0.581777 9.42284L11.2653 3.41334C11.722 3.15649 12.2795 3.15649 12.7361 3.41334L23.4197 9.42284C23.6745 9.56621 23.6745 9.93316 23.4197 10.0765L12.7361 16.086C12.2795 16.3429 11.722 16.3429 11.2653 16.086L0.581777 10.0765C0.326907 9.93316 0.326908 9.5662 0.581777 9.42284Z" fill="#545473"/>
<path fill-rule="evenodd" clip-rule="evenodd" d="M11.7453 9.48343C11.8925 9.75696 11.7902 10.0981 11.5167 10.2454L7.43053 12.4456C7.12687 12.6091 6.9375 12.9262 6.9375 13.2711V19.5001C6.9375 19.8108 6.68566 20.0626 6.375 20.0626C6.06434 20.0626 5.8125 19.8108 5.8125 19.5001V13.2711C5.8125 12.5123 6.2291 11.8148 6.89717 11.4551L10.9833 9.25484C11.2568 9.10756 11.598 9.2099 11.7453 9.48343Z" fill="#FFCE22"/>
<path d="M5.25 20.4113C5.25 19.6154 6.05384 19.0711 6.79281 19.3667V19.3667C7.21993 19.5376 7.5 19.9512 7.5 20.4113V21.5879C7.5 22.3838 6.69616 22.9281 5.95719 22.6325V22.6325C5.53007 22.4616 5.25 22.048 5.25 21.5879V20.4113Z" fill="#FFCE22"/>
</svg>
