<svg width="26" height="24" viewBox="0 0 26 24" fill="none" xmlns="http://www.w3.org/2000/svg">
<g clip-path="url(#clip0_592_60400)">
<path d="M12.8905 5.61213C13.6079 4.36958 15.1967 3.94386 16.4393 4.66124V4.66124C16.7499 4.84059 16.8563 5.23779 16.677 5.54843L12.1307 13.4228L9.31845 11.7991L12.8905 5.61213Z" fill="#545473"/>
<path d="M13.9704 6.98663C14.4743 6.11381 15.5904 5.81476 16.4632 6.31869L16.5702 6.38045C16.8032 6.51496 16.883 6.81287 16.7485 7.04584L16.0796 8.20439L13.9704 6.98663V6.98663Z" fill="#CFDBE9"/>
<path d="M7.34668 2.22421C7.57086 1.83591 8.06776 1.70315 8.45605 1.92733C8.84417 2.15156 8.97703 2.64751 8.75293 3.03573L8.57812 3.33749C9.66275 4.5992 11.927 6.39068 15.375 7.02596L15.7842 7.0953L22.2051 16.4244C22.6424 17.0599 22.6748 17.8911 22.2891 18.5592L20.7666 21.1959L10.9238 15.5123L10.9746 15.4244L3.94434 11.3658L7.12988 5.84823L7.12891 5.84725L4.34961 10.6627L2.94336 9.85116L7.34668 2.22421Z" fill="#CFD3E9"/>
<path fill-rule="evenodd" clip-rule="evenodd" d="M18.7384 10.502C18.7638 10.8116 18.5333 11.0831 18.2237 11.1085L15.5098 11.3306C15.2002 11.356 14.9286 11.1255 14.9033 10.8159C14.8779 10.5063 15.1084 10.2347 15.418 10.2094L18.1319 9.98722C18.4415 9.96188 18.7131 10.1923 18.7384 10.502Z" fill="#545473"/>
<path fill-rule="evenodd" clip-rule="evenodd" d="M20.3634 12.9375C20.3888 13.2471 20.1583 13.5187 19.8487 13.544L17.1348 13.7662C16.8252 13.7915 16.5536 13.561 16.5283 13.2514C16.5029 12.9418 16.7334 12.6703 17.043 12.6449L19.7569 12.4228C20.0665 12.3974 20.3381 12.6279 20.3634 12.9375Z" fill="#545473"/>
<path d="M20.8167 21.1084L20.5052 21.6484C20.3781 21.8683 20.1796 22.02 19.9563 22.0947C19.1505 23.3241 1.28441 12.9658 2.09304 11.6514C2.08214 11.4632 2.12459 11.2701 2.22585 11.0947L3.3489 9.14844L20.8167 21.1084Z" fill="#A8A7C8"/>
</g>
<defs>
<clipPath id="clip0_592_60400">
<rect width="24.1262" height="21.5034" fill="white" transform="translate(1.5 1.52148)"/>
</clipPath>
</defs>
</svg>
