<svg width="18" height="18" viewBox="0 0 18 18" fill="none" xmlns="http://www.w3.org/2000/svg">
<path fill-rule="evenodd" clip-rule="evenodd" d="M10.2437 2.74744C8.83927 2.46808 7.38169 2.66969 6.10581 3.31978C4.82994 3.96987 3.81009 5.03058 3.21059 6.33099C2.6111 7.6314 2.46687 9.09578 2.80115 10.4882C3.13543 11.8805 3.92875 13.1198 5.05328 14.0063C6.17781 14.8928 7.56806 15.3749 9 15.3749C9.31066 15.3749 9.5625 15.6268 9.5625 15.9374C9.5625 16.2481 9.31066 16.4999 9 16.4999C7.31536 16.4999 5.67978 15.9328 4.3568 14.8898C3.03382 13.8469 2.1005 12.3889 1.70723 10.7508C1.31396 9.11269 1.48364 7.38989 2.18893 5.86C2.89422 4.3301 4.09405 3.08221 5.59508 2.3174C7.0961 1.55259 8.81091 1.3154 10.4632 1.64406C12.1154 1.97272 13.609 2.84808 14.703 4.12909C15.7971 5.4101 16.4281 7.02215 16.4942 8.7055C16.5604 10.3888 16.0578 12.0454 15.0676 13.4083L14.1575 12.7471C14.9992 11.5886 15.4263 10.1805 15.3701 8.74966C15.3139 7.31882 14.7776 5.94857 13.8476 4.85972C12.9176 3.77086 11.6481 3.0268 10.2437 2.74744Z" fill="#3E434B"/>
<path d="M13.5122 10.8748L13.6142 13.9981C13.6183 14.123 13.7412 14.2091 13.86 14.1702L16.8298 13.1978C16.9766 13.1497 17.0056 12.9546 16.879 12.866L13.8072 10.7151C13.6806 10.6264 13.5072 10.7204 13.5122 10.8748Z" fill="#3E434B"/>
<path d="M5.59505 2.31714C7.09607 1.55235 8.81121 1.31539 10.4635 1.64404C12.1156 1.97274 13.6087 2.84824 14.7027 4.12915C15.7968 5.41015 16.4281 7.022 16.4942 8.70532C16.5407 9.88889 16.3043 11.0585 15.8167 12.1228L16.8787 12.8662C17.0053 12.9548 16.9765 13.1499 16.8297 13.198L13.8597 14.1699C13.741 14.2087 13.6184 14.1227 13.6143 13.9978L13.5125 10.8748C13.5075 10.7204 13.6804 10.6265 13.807 10.7151L14.877 11.4644C15.2348 10.6112 15.4067 9.68539 15.37 8.74927C15.3137 7.31853 14.7772 5.94816 13.8472 4.85938C12.9173 3.77067 11.648 3.0264 10.2437 2.74707C8.8393 2.46771 7.38142 2.66974 6.10555 3.31982C4.8298 3.96993 3.80974 5.03049 3.21029 6.33081C2.61082 7.63119 2.46661 9.0957 2.80086 10.488C3.13511 11.8803 3.92869 13.1194 5.05306 14.0059C6.17759 14.8924 7.56814 15.3748 9.00008 15.3748C9.31068 15.3748 9.56255 15.6267 9.56258 15.9373C9.56258 16.2479 9.3107 16.4997 9.00008 16.4998C7.31544 16.4998 5.6795 15.9328 4.35653 14.8899C3.03367 13.847 2.10067 12.3889 1.70736 10.751C1.3141 9.11293 1.48332 7.38973 2.18856 5.85986C2.89385 4.32997 4.09403 3.08195 5.59505 2.31714Z" fill="#3E434B"/>
</svg>
