<svg width="24" height="24" viewBox="0 0 24 24" fill="none" xmlns="http://www.w3.org/2000/svg">
<path d="M20.7932 16.4943C20.2728 15.5981 19.4994 13.0621 19.4994 9.74994C19.4994 7.76082 18.7092 5.85316 17.3027 4.44664C15.8962 3.04012 13.9885 2.24994 11.9994 2.24994C10.0103 2.24994 8.10262 3.04012 6.6961 4.44664C5.28958 5.85316 4.4994 7.76082 4.4994 9.74994C4.4994 13.0631 3.72503 15.5981 3.20471 16.4943C3.07184 16.7222 3.0014 16.981 3.0005 17.2448C2.99959 17.5086 3.06825 17.7679 3.19956 17.9967C3.33086 18.2254 3.52016 18.4155 3.74838 18.5478C3.97659 18.68 4.23564 18.7498 4.4994 18.7499H8.32534C8.49838 19.5967 8.95855 20.3576 9.62803 20.9041C10.2975 21.4506 11.1352 21.7491 11.9994 21.7491C12.8636 21.7491 13.7013 21.4506 14.3708 20.9041C15.0403 20.3576 15.5004 19.5967 15.6735 18.7499H19.4994C19.7631 18.7496 20.022 18.6797 20.2501 18.5474C20.4782 18.4151 20.6674 18.225 20.7985 17.9962C20.9297 17.7675 20.9983 17.5082 20.9974 17.2446C20.9964 16.9809 20.926 16.7221 20.7932 16.4943ZM11.9994 20.2499C11.5342 20.2498 11.0805 20.1055 10.7008 19.8369C10.321 19.5682 10.0338 19.1885 9.87878 18.7499H14.12C13.965 19.1885 13.6778 19.5682 13.298 19.8369C12.9183 20.1055 12.4646 20.2498 11.9994 20.2499ZM4.4994 17.2499C5.22128 16.0087 5.9994 13.1324 5.9994 9.74994C5.9994 8.15864 6.63154 6.63252 7.75676 5.5073C8.88198 4.38208 10.4081 3.74994 11.9994 3.74994C13.5907 3.74994 15.1168 4.38208 16.242 5.5073C17.3673 6.63252 17.9994 8.15864 17.9994 9.74994C17.9994 13.1296 18.7757 16.0059 19.4994 17.2499H4.4994Z" fill="white"/>
</svg>
