<svg width="24" height="24" viewBox="0 0 24 24" fill="none" xmlns="http://www.w3.org/2000/svg">
<path d="M6.58322 7.08334C6.99724 7.08352 7.33316 7.41928 7.33322 7.83334C7.33321 8.24743 6.99729 8.58317 6.58322 8.58334C5.92347 8.5834 5.45997 8.57969 5.09787 8.6517C4.77714 8.7156 4.65618 8.81645 4.57834 8.95346C4.43546 9.20525 4.37326 9.52953 4.44943 10.1302C4.52832 10.752 4.73725 11.551 5.04318 12.7113L5.89377 15.9378C6.1998 17.0985 6.41208 17.8966 6.64963 18.4749C6.87928 19.034 7.09132 19.2796 7.3342 19.4222C7.57545 19.5638 7.88645 19.6269 8.47287 19.5501C9.08192 19.4704 9.86618 19.2588 11.009 18.9476L11.8029 18.7318C12.2024 18.6232 12.614 18.8587 12.7229 19.2582C12.8317 19.6578 12.5962 20.0702 12.1965 20.179L11.4026 20.3949C10.3014 20.6947 9.40127 20.9413 8.6672 21.0374C7.91084 21.1364 7.21805 21.0932 6.57541 20.7162C5.93456 20.3401 5.55384 19.7558 5.26193 19.0453C4.97774 18.3534 4.73894 17.4399 4.44357 16.3197L3.59299 13.0941C3.2976 11.9738 3.05542 11.062 2.96115 10.3187C2.86429 9.55478 2.90653 8.85879 3.27365 8.21225C3.63725 7.57224 4.22061 7.29736 4.8049 7.181C5.34807 7.07292 5.9935 7.08339 6.58322 7.08334Z" fill="#292C32"/>
<path fill-rule="evenodd" clip-rule="evenodd" d="M10.757 3.27475C11.3985 2.90673 12.0893 2.86446 12.8449 2.96127C13.5794 3.05545 14.4809 3.29692 15.5852 3.59116L16.3801 3.80307C17.4843 4.09727 18.3861 4.33582 19.0695 4.61948C19.7726 4.91135 20.3515 5.29244 20.7229 5.93198C21.0942 6.57201 21.1368 7.26208 21.0393 8.01499C20.9445 8.74625 20.7013 9.64291 20.4055 10.7406L19.5529 13.9046C19.2571 15.0024 19.0163 15.9 18.7307 16.5804C18.4734 17.1932 18.1478 17.71 17.6408 18.0765L17.4113 18.2249C16.7699 18.5931 16.079 18.6352 15.3235 18.5384C14.589 18.4443 13.6876 18.2028 12.5832 17.9085L11.7883 17.6966C10.6841 17.4025 9.78236 17.1638 9.09885 16.8802C8.39561 16.5883 7.81695 16.2074 7.44553 15.5677C7.07393 14.9275 7.03152 14.2379 7.12912 13.4847C7.22394 12.7534 7.46711 11.8568 7.76291 10.7591L8.61545 7.59506C8.91129 6.4972 9.15209 5.59966 9.43771 4.91928C9.73195 4.21855 10.115 3.64338 10.757 3.27475ZM12.0754 10.2855C11.6754 10.179 11.2643 10.4169 11.1574 10.8167C11.0508 11.2168 11.2887 11.6279 11.6887 11.7347L13.6779 12.265C14.078 12.3712 14.4893 12.1328 14.5959 11.7328C14.7021 11.3328 14.4636 10.9215 14.0637 10.8148L12.0754 10.2855ZM12.9279 7.12143C12.528 7.01498 12.1169 7.25289 12.01 7.65268C11.9034 8.05276 12.1413 8.46379 12.5412 8.57065L16.5188 9.63022C16.9189 9.73671 17.3301 9.49909 17.4367 9.09897C17.5431 8.69901 17.3053 8.28783 16.9055 8.181L12.9279 7.12143Z" fill="#292C32"/>
</svg>
