<svg width="20" height="20" viewBox="0 0 20 20" fill="none" xmlns="http://www.w3.org/2000/svg">
<path d="M2.61371 6.82639H5.25922C5.71563 6.82648 6.09969 7.18163 6.18011 7.64572C6.32605 8.48762 6.63255 9.59499 7.27484 10.5403C7.91996 11.4895 8.90506 12.275 10.3969 12.4602L10.4047 12.4612H13.2729C15.1809 13.1633 18.2626 14.7169 18.5258 18.5383C18.5566 18.9886 18.1766 19.3586 17.7055 19.3586H7.20746C6.67498 19.3586 6.26594 18.8867 6.34125 18.3596L6.59027 16.6145L6.59906 16.5539L6.55609 16.51C5.68268 15.6229 4.65066 14.8121 3.74554 13.5237C2.84579 12.2428 2.07601 10.492 1.76508 7.75119C1.70888 7.25544 2.1068 6.82649 2.61371 6.82639Z" fill="#444444" stroke="#333333" stroke-width="0.25"/>
<rect x="10.8247" y="12.8863" width="2.47396" height="3.29861" fill="white"/>
<path d="M13.0409 13.2986L12.0616 12.4739L11.0308 13.2986L11.6493 14.1232L11.237 16.5972L12.0616 17.8342L12.8863 16.5972L12.474 14.1232L13.0409 13.2986Z" fill="#A6C2FF"/>
<path d="M10.6185 14.7417L11.8555 12.8863L10.1874 12.4739L10 13.7109L10.6185 14.7417Z" fill="white"/>
<path d="M13.5048 14.7417L12.2678 12.8863L13.7109 12.4739L14.1233 13.7109L13.5048 14.7417Z" fill="white"/>
<line x1="12.0781" y1="12.7312" x2="10.8411" y2="14.7928" stroke="#D2D2D2"/>
<line y1="-0.5" x2="2.40426" y2="-0.5" transform="matrix(0.514496 0.857493 0.857493 -0.514496 12.474 12.4739)" stroke="#D2D2D2"/>
<path d="M14.1233 14.9479L15.3602 14.5356L14.5356 12.8863L13.7977 12.4739L12.0616 17.8342L15.1541 15.5664L14.1233 14.9479Z" fill="#333333"/>
<path d="M8.76303 14.1232L10.2099 12.4739L12.0616 17.8342L9.38152 15.9787L10.0825 14.9479L8.76303 14.1232Z" fill="#333333"/>
<path d="M7.31543 7.27032H8.08789V9.58575H7.82812C7.04718 9.5856 6.41413 8.95266 6.41406 8.17169C6.41406 7.67395 6.81769 7.27032 7.31543 7.27032Z" fill="#FFDEC6" stroke="#FCC69F" stroke-width="0.25"/>
<path d="M16.8078 7.27032L16.0354 7.27032L16.0354 9.58575L16.2951 9.58575C17.0761 9.5856 17.7091 8.95266 17.7092 8.17169C17.7092 7.67395 17.3056 7.27032 16.8078 7.27032Z" fill="#FFDEC6" stroke="#FCC69F" stroke-width="0.25"/>
<path d="M7.57187 5.58765C7.57187 3.96829 8.88462 2.65555 10.504 2.65555H13.6193C15.2387 2.65555 16.5514 3.96829 16.5514 5.58765V8.42813C16.5514 10.9078 14.5413 12.9179 12.0616 12.9179Lnan nanL12.0616 12.9179C9.58201 12.9179 7.57187 10.9078 7.57187 8.42812V5.58765Z" fill="#FFDEC6"/>
<path fill-rule="evenodd" clip-rule="evenodd" d="M13.6193 2.90294H10.504C9.02125 2.90294 7.81926 4.10493 7.81926 5.58765V8.42812C7.81926 10.7711 9.71865 12.6705 12.0616 12.6705C14.4047 12.6705 16.304 10.7711 16.304 8.42813V5.58765C16.304 4.10493 15.102 2.90294 13.6193 2.90294ZM10.504 2.65555C8.88462 2.65555 7.57187 3.96829 7.57187 5.58765V8.42812C7.57187 10.9078 9.58201 12.9179 12.0616 12.9179C14.5413 12.9179 16.5514 10.9078 16.5514 8.42813V5.58765C16.5514 3.96829 15.2387 2.65555 13.6193 2.65555H10.504Z" fill="#FCC69F"/>
<path fill-rule="evenodd" clip-rule="evenodd" d="M10.5335 9.95404C10.6089 9.76657 10.7906 9.64374 10.9927 9.64374H13.1306C13.3354 9.64374 13.519 9.76982 13.5925 9.96089C13.666 10.152 13.6142 10.3686 13.4622 10.5058L13.1306 10.1385C13.4622 10.5058 13.4621 10.5059 13.4619 10.5061L13.4615 10.5064L13.4608 10.5071L13.4592 10.5085L13.4555 10.5118L13.4463 10.5197C13.4394 10.5255 13.4309 10.5325 13.4208 10.5405C13.4007 10.5565 13.374 10.5765 13.3409 10.599C13.2748 10.6441 13.1825 10.6996 13.0642 10.7537C12.8263 10.8624 12.4866 10.9636 12.0511 10.9636C11.6152 10.9636 11.2789 10.8622 11.0434 10.7513C10.9265 10.6963 10.8357 10.6395 10.7705 10.5931C10.738 10.5699 10.7117 10.5492 10.6917 10.5325C10.6817 10.5242 10.6733 10.5168 10.6664 10.5106L10.6572 10.5023L10.6535 10.4988L10.6518 10.4972L10.651 10.4964L10.6506 10.4961C10.6505 10.4959 10.6503 10.4957 10.9927 10.1385L10.6503 10.4957C10.5044 10.3559 10.4582 10.1415 10.5335 9.95404Z" fill="#FF781D"/>
<path d="M10.4972 0.882111C11.1389 0.643028 11.9383 0.563076 12.7609 0.641876C14.4133 0.800217 16.1054 1.59058 16.7853 2.92606L16.7863 2.92703C17.4739 4.2443 17.4733 5.44436 17.3019 6.31473C17.2161 6.75017 17.0875 7.10327 16.9806 7.34695C16.9272 7.46868 16.8791 7.56293 16.8449 7.62625C16.8423 7.63098 16.8395 7.63554 16.8371 7.63992C16.3663 7.50625 15.8567 7.17414 15.4494 6.85477C15.2349 6.68664 15.0528 6.52533 14.924 6.40652C14.8596 6.34716 14.8082 6.29871 14.7736 6.26492L14.7218 6.21317L14.507 5.99344V6.79715C13.374 6.52969 12.6526 5.77181 12.2453 4.72586C12.1296 4.42886 11.9809 4.23943 11.8097 4.13504C11.6366 4.0295 11.4559 4.02011 11.3 4.05106C11.1466 4.08157 11.013 4.15184 10.9201 4.21121C10.873 4.24132 10.8343 4.27023 10.8078 4.29129C10.7946 4.30171 10.7839 4.31039 10.7765 4.31668C10.7729 4.31977 10.7698 4.32265 10.7677 4.32449L10.7648 4.32742L10.8488 4.4202L10.7638 4.32742L10.7326 4.35672L10.7257 4.39871C10.4638 5.94675 9.80874 6.50134 9.25308 6.68875C8.96947 6.78435 8.70004 6.7891 8.50015 6.76883C8.40043 6.75871 8.31879 6.74221 8.26285 6.72879C8.23498 6.72211 8.21346 6.71637 8.19937 6.71219C8.19233 6.7101 8.18697 6.70835 8.18375 6.70731C8.18243 6.70688 8.18145 6.70654 8.18082 6.70633H8.17984L8.04703 6.65945L8.01675 6.79715C7.94575 7.11806 7.74952 7.33547 7.56461 7.47488C7.47787 7.54025 7.39443 7.58693 7.33121 7.61844C6.3823 5.05181 6.83795 3.69703 7.49136 2.98074C7.82793 2.61191 8.22668 2.40044 8.54312 2.28152C8.70097 2.22221 8.83739 2.18638 8.93375 2.16531C8.9816 2.15485 9.01952 2.14793 9.04507 2.14383C9.05785 2.14178 9.06815 2.13978 9.07437 2.13895C9.07736 2.13855 9.07988 2.13911 9.08121 2.13895L9.08218 2.13797L9.15933 2.13016L9.1857 2.05692C9.38301 1.51431 9.85546 1.12123 10.4972 0.882111Z" fill="#222222" stroke="#111111" stroke-width="0.25"/>
<path d="M10.2614 8.55279C10.4597 8.55182 10.6192 8.30214 10.6177 7.99512C10.6162 7.6881 10.4542 7.43999 10.2559 7.44096C10.0577 7.44193 9.89813 7.69161 9.89963 7.99863C9.90113 8.30565 10.0631 8.55376 10.2614 8.55279Z" fill="#222222"/>
<path d="M13.8692 8.55163C14.0675 8.55066 14.2271 8.30124 14.2256 7.99454C14.2241 7.68784 14.0621 7.43999 13.8638 7.44096C13.6655 7.44193 13.506 7.69135 13.5075 7.99805C13.509 8.30475 13.671 8.5526 13.8692 8.55163Z" fill="#222222"/>
<path d="M11.8941 8.06656L11.6605 8.85194C11.612 9.01364 11.7266 9.17533 11.8897 9.17533H12.2335C12.3966 9.17533 12.5112 9.01364 12.4627 8.85194L12.2291 8.06656C12.1806 7.89562 11.947 7.89562 11.8941 8.06656Z" fill="#FFAB80"/>
<path fill-rule="evenodd" clip-rule="evenodd" d="M7.20036 3.49671C7.44013 3.68939 7.47871 4.04159 7.28653 4.28338L5.92856 5.99192C5.874 6.06056 5.80671 6.11293 5.73282 6.14832C5.39559 6.54128 4.87617 6.8232 4.27156 6.89195C3.32403 6.99968 2.46726 6.54972 2.15058 5.84167C2.10411 5.78342 2.07091 5.71313 2.05647 5.63455L1.50111 2.61267C1.45423 2.35756 1.62282 2.11175 1.87767 2.06363C2.13252 2.01552 2.37713 2.18332 2.42401 2.43843L2.69692 3.92341C2.75479 3.87687 2.81573 3.83293 2.87948 3.79186L2.53249 1.89817C2.48574 1.64303 2.65446 1.39731 2.90934 1.34933C3.16421 1.30135 3.40873 1.46928 3.45548 1.72442L3.77215 3.45264C3.79649 3.44866 3.82098 3.44502 3.84563 3.44175L3.71568 1.34447C3.69963 1.08546 3.89631 0.861745 4.15497 0.844788C4.41363 0.82783 4.63633 1.02405 4.65238 1.28306L4.78987 3.50194C4.85517 3.51982 4.91901 3.54048 4.98118 3.56378L4.99255 1.5406C4.99401 1.28101 5.20529 1.07118 5.46445 1.07192C5.72361 1.07266 5.93252 1.28369 5.93106 1.54328L5.91602 4.21753L6.41826 3.58564C6.61043 3.34385 6.96059 3.30404 7.20036 3.49671Z" fill="#FFDEC6"/>
<path fill-rule="evenodd" clip-rule="evenodd" d="M7.27794 3.40002C7.57067 3.63526 7.61775 4.06504 7.38312 4.36024L6.02515 6.06878C5.96459 6.14498 5.89093 6.20496 5.8099 6.24781C5.45089 6.65585 4.90926 6.94397 4.28504 7.01494C3.30085 7.12684 2.3914 6.66447 2.04396 5.90633C1.99035 5.83519 1.95207 5.75078 1.93491 5.6574L1.37956 2.63552C1.32033 2.31325 1.53329 2.00275 1.85523 1.94197C2.09988 1.89578 2.33707 2.00708 2.4629 2.20458L2.41093 1.92095C2.35187 1.59865 2.56499 1.28826 2.88696 1.22765C3.209 1.16703 3.51798 1.37923 3.57705 1.7016L3.63279 2.0058L3.59232 1.3526C3.57204 1.02534 3.82056 0.742666 4.14737 0.72124C4.47415 0.699818 4.75547 0.947694 4.77575 1.27491L4.86257 2.67619L4.86896 1.54036C4.8708 1.21236 5.13781 0.947171 5.46528 0.948106C5.79265 0.94904 6.05651 1.21558 6.05466 1.54348L6.04163 3.8611L6.32168 3.50875C6.55659 3.21319 6.98485 3.1645 7.27794 3.40002ZM7.18995 4.20649C7.33967 4.01812 7.30959 3.74349 7.12279 3.59338C6.93634 3.44355 6.66429 3.47448 6.51484 3.6625L6.01261 4.29439C5.97976 4.33572 5.92447 4.35177 5.87484 4.33439C5.82521 4.31702 5.79213 4.27002 5.79243 4.2173L5.80747 1.54304C5.80854 1.35178 5.65458 1.19624 5.46363 1.1957C5.27277 1.19515 5.11723 1.34964 5.11615 1.5408L5.10477 3.56399C5.10455 3.60453 5.08452 3.64246 5.05115 3.66554C5.01779 3.68862 4.97532 3.69392 4.93747 3.67973C4.87883 3.65775 4.81856 3.63824 4.75685 3.62135C4.70605 3.60744 4.66978 3.56275 4.66651 3.51007L4.52902 1.29119C4.5172 1.10038 4.35313 0.955814 4.16257 0.968306C3.97206 0.980796 3.82722 1.14555 3.83904 1.33632L3.96899 3.43359C3.97302 3.49863 3.92599 3.55586 3.86144 3.56445C3.83802 3.56757 3.81474 3.57102 3.79162 3.5748C3.72531 3.58565 3.66269 3.54153 3.65058 3.47543L3.33391 1.7472C3.29948 1.5593 3.11943 1.43564 2.93172 1.47098C2.74394 1.50633 2.61963 1.68739 2.65407 1.87535L3.00106 3.76904C3.01012 3.81849 2.98838 3.86862 2.94607 3.89588C2.88592 3.93463 2.82852 3.97603 2.77408 4.01981C2.74012 4.04712 2.69441 4.05461 2.65369 4.03954C2.61297 4.02447 2.58322 3.98905 2.57536 3.94626L2.30245 2.46128C2.26792 2.2734 2.08781 2.14984 1.90012 2.18527C1.71236 2.22072 1.58814 2.40185 1.62268 2.58979L2.17803 5.61167C2.18871 5.66976 2.21314 5.72138 2.24726 5.76414C2.25374 5.77227 2.25917 5.78119 2.26342 5.79068C2.55405 6.44051 3.35314 6.87182 4.25809 6.76893C4.83342 6.70351 5.32357 6.43564 5.63923 6.06781C5.65047 6.05471 5.66431 6.0441 5.67986 6.03665C5.73711 6.00923 5.78938 5.96863 5.83198 5.91503L5.92857 5.9919L5.83198 5.91503L7.18995 4.20649Z" fill="#FCC69F"/>
<rect x="2.57812" y="6.70139" width="2.88628" height="0.412326" fill="#333333"/>
</svg>
