<svg width="20" height="20" viewBox="0 0 20 20" fill="none" xmlns="http://www.w3.org/2000/svg">
<path d="M17.5 13.75C17.5 16.25 16.25 18.75 10 18.75C3.75 18.75 2.5 16.25 2.5 13.75C2.5 7.91667 8.125 5 10 5C11.875 5 17.5 7.91667 17.5 13.75Z" fill="#FFC300"/>
<path d="M6.54518 2.79518L8.75 5H11.25L13.4548 2.79518C13.7133 2.53668 13.4672 2.10195 13.1125 2.19061L12.5455 2.33237C12.1185 2.43912 11.6662 2.36078 11.2999 2.11662C10.5128 1.59184 9.48724 1.59184 8.70005 2.11662C8.3338 2.36078 7.88154 2.43912 7.45451 2.33237L6.88748 2.19061C6.53282 2.10195 6.28668 2.53668 6.54518 2.79518Z" fill="#FFC300"/>
<path d="M7.5 5C7.5 4.65482 7.77982 4.375 8.125 4.375H11.875C12.2202 4.375 12.5 4.65482 12.5 5V5C12.5 5.34518 12.2202 5.625 11.875 5.625H8.125C7.77982 5.625 7.5 5.34518 7.5 5V5Z" fill="#FF8700"/>
<path opacity="0.8" d="M10 10C10.2104 10 10.3972 10.1378 10.4639 10.3418L11.3047 12.9189L12.1445 10.3418C12.23 10.0799 12.5074 9.93809 12.7637 10.0254C13.0198 10.1128 13.1577 10.3963 13.0723 10.6582L12.6348 12H13.2607C13.5309 12 13.75 12.2239 13.75 12.5C13.75 12.7761 13.5309 13 13.2607 13H12.3086L11.7686 14.6582C11.702 14.8622 11.5151 14.9998 11.3047 15C11.0942 15 10.9064 14.8624 10.8398 14.6582L10 12.0811L9.15918 14.6582C9.09254 14.8623 8.90578 15 8.69531 15C8.48491 14.9999 8.298 14.8623 8.23145 14.6582L7.69043 13H6.73926C6.46912 13 6.25 12.7761 6.25 12.5C6.25003 12.2239 6.46914 12 6.73926 12H7.36426L6.92676 10.6582C6.84146 10.3963 6.98018 10.1127 7.23633 10.0254C7.49256 9.93809 7.76999 10.0799 7.85547 10.3418L8.69531 12.9189L9.53613 10.3418C9.60278 10.1378 9.78955 10 10 10Z" fill="white"/>
</svg>
