<svg width="20" height="20" viewBox="0 0 20 20" fill="none" xmlns="http://www.w3.org/2000/svg">
<path d="M17.9687 10.108C17.9687 14.7535 14.2028 18.5194 9.55727 18.5194C4.91175 18.5194 1.14581 14.7535 1.14581 10.108C1.14581 5.46247 4.91175 1.69653 9.55727 1.69653C14.2028 1.69653 17.9687 5.46247 17.9687 10.108Z" fill="#CFDBE9"/>
<path d="M14.8698 10.1071C14.8698 13.0411 12.4913 15.4196 9.55731 15.4196C6.6233 15.4196 4.24481 13.0411 4.24481 10.1071C4.24481 7.1731 6.6233 4.79462 9.55731 4.79462C12.4913 4.79462 14.8698 7.1731 14.8698 10.1071Z" fill="#A3B5C9"/>
<path d="M12.1427 10.0363C12.1427 11.5033 10.9535 12.6925 9.48645 12.6925C8.01944 12.6925 6.8302 11.5033 6.8302 10.0363C6.8302 8.56928 8.01944 7.38004 9.48645 7.38004C10.9535 7.38004 12.1427 8.56928 12.1427 10.0363Z" fill="#F0F0F0"/>
<path d="M12.0694 5.3916L12.4796 6.8273C12.5754 7.16258 12.8375 7.42466 13.1728 7.52046L14.6085 7.93066C15.3133 8.13205 16.072 7.93547 16.5903 7.41711L18.7061 5.30129C18.9782 5.02921 18.8579 4.56495 18.4879 4.45925L16.7349 3.95837C16.3996 3.86257 16.1375 3.60049 16.0417 3.2652L15.5408 1.51213C15.4351 1.14216 14.9709 1.02185 14.6988 1.29393L12.583 3.40976C12.0646 3.92811 11.868 4.68674 12.0694 5.3916Z" fill="#296DFF"/>
<path d="M9.19094 10.6455C8.89534 10.3499 8.89534 9.87062 9.19094 9.57502L15.257 3.50896C15.5526 3.21335 16.0319 3.21335 16.3275 3.50895C16.6231 3.80456 16.6231 4.28383 16.3275 4.57944L10.2614 10.6455C9.96582 10.9411 9.48655 10.9411 9.19094 10.6455Z" fill="#4C586A"/>
</svg>
