<svg width="20" height="20" viewBox="0 0 20 20" fill="none" xmlns="http://www.w3.org/2000/svg">
<path d="M2.96875 2.96875H17.0312V17.6172C17.0312 17.9408 16.7689 18.2031 16.4453 18.2031H3.55469C3.23108 18.2031 2.96875 17.9408 2.96875 17.6172V2.96875Z" fill="#CDD6E1"/>
<path d="M14.0825 6.04619C14.0699 5.89412 13.9696 5.80319 13.7658 5.80476C13.5698 5.80319 13.4789 5.88158 13.4773 5.98661C13.4726 6.10419 13.5792 6.16847 13.7909 6.21236L13.979 6.25626C14.4665 6.35973 14.6845 6.59645 14.6876 6.94605C14.6845 7.39127 14.3427 7.64054 13.7689 7.64211C13.1826 7.64054 12.8016 7.38657 12.7969 6.8269H13.3676C13.377 7.03854 13.5228 7.14985 13.7595 7.14985C13.9649 7.14985 14.0746 7.06676 14.0762 6.94605C14.0746 6.83631 13.9806 6.77203 13.7282 6.71716L13.4993 6.667C13.0995 6.5792 12.8549 6.38167 12.8565 6.03051C12.8534 5.60096 13.2328 5.3125 13.7658 5.3125C14.3098 5.3125 14.6531 5.60566 14.6562 6.04619H14.0825Z" fill="#7E8EA5"/>
<path d="M10.0756 7.61458L9.40778 5.34454H10.0725L10.3923 6.76488H10.4111L10.7842 5.34454H11.311L11.6872 6.77115H11.706L12.0258 5.34454H12.6905L12.0227 7.61458H11.4489L11.057 6.31652H11.0382L10.6463 7.61458H10.0756Z" fill="#7E8EA5"/>
<path d="M7.57271 7.61458V5.34454H9.19371V5.8274H8.16844V6.23813H9.10906V6.72099H8.16844V7.13172H9.19058V7.61458H7.57271Z" fill="#7E8EA5"/>
<path d="M7.26586 5.34454V7.61458H6.76733L5.9239 6.38863H5.90823V7.61458H5.3125V5.34454H5.82044L6.65132 6.56422H6.67013V5.34454H7.26586Z" fill="#7E8EA5"/>
<path d="M5.3125 9.56055C5.3125 9.47965 5.37808 9.41406 5.45898 9.41406H11.6113C11.6922 9.41406 11.7578 9.47965 11.7578 9.56055V9.85352C11.7578 9.93442 11.6922 10 11.6113 10H5.45898C5.37808 10 5.3125 9.93442 5.3125 9.85352V9.56055Z" fill="#7E8EA5"/>
<path d="M12.9297 9.56055C12.9297 9.47965 12.9953 9.41406 13.0762 9.41406H14.541C14.6219 9.41406 14.6875 9.47965 14.6875 9.56055V9.85352C14.6875 9.93442 14.6219 10 14.541 10H13.0762C12.9953 10 12.9297 9.93442 12.9297 9.85352V9.56055Z" fill="#7E8EA5"/>
<path d="M5.3125 11.3184C5.3125 11.2375 5.37808 11.1719 5.45898 11.1719H11.6113C11.6922 11.1719 11.7578 11.2375 11.7578 11.3184V11.6113C11.7578 11.6922 11.6922 11.7578 11.6113 11.7578H5.45898C5.37808 11.7578 5.3125 11.6922 5.3125 11.6113V11.3184Z" fill="#7E8EA5"/>
<path d="M12.9297 11.3184C12.9297 11.2375 12.9953 11.1719 13.0762 11.1719H14.541C14.6219 11.1719 14.6875 11.2375 14.6875 11.3184V11.6113C14.6875 11.6922 14.6219 11.7578 14.541 11.7578H13.0762C12.9953 11.7578 12.9297 11.6922 12.9297 11.6113V11.3184Z" fill="#7E8EA5"/>
<path d="M5.3125 12.959C5.3125 12.8781 5.37808 12.8125 5.45898 12.8125H11.6113C11.6922 12.8125 11.7578 12.8781 11.7578 12.959V13.252C11.7578 13.3329 11.6922 13.3984 11.6113 13.3984H5.45898C5.37808 13.3984 5.3125 13.3329 5.3125 13.252V12.959Z" fill="#7E8EA5"/>
<path d="M5.3125 12.959C5.3125 12.8781 5.37808 12.8125 5.45898 12.8125H11.6113C11.6922 12.8125 11.7578 12.8781 11.7578 12.959V14.9453C11.7578 15.0262 11.6922 15.1328 11.6113 15.1328H5.45898C5.37808 15.1328 5.3125 15.0262 5.3125 14.9453V12.959Z" fill="#7E8EA5"/>
<path d="M12.9297 13.0762C12.9297 12.9953 12.9953 12.9297 13.0762 12.9297H14.541C14.6219 12.9297 14.6875 12.9953 14.6875 13.0762V13.3691C14.6875 13.45 14.6219 13.5156 14.541 13.5156H13.0762C12.9953 13.5156 12.9297 13.45 12.9297 13.3691V13.0762Z" fill="#7E8EA5"/>
<path d="M5.3125 14.834C5.3125 14.7531 5.37808 14.6875 5.45898 14.6875H11.6113C11.6922 14.6875 11.7578 14.7531 11.7578 14.834V15.127C11.7578 15.2079 11.6922 15.2734 11.6113 15.2734H5.45898C5.37808 15.2734 5.3125 15.2079 5.3125 15.127V14.834Z" fill="#7E8EA5"/>
<path d="M12.9297 14.834C12.9297 14.7531 12.9953 14.6875 13.0762 14.6875H14.541C14.6219 14.6875 14.6875 14.7531 14.6875 14.834V15.127C14.6875 15.2079 14.6219 15.2734 14.541 15.2734H13.0762C12.9953 15.2734 12.9297 15.2079 12.9297 15.127V14.834Z" fill="#7E8EA5"/>
<path d="M2.96875 2.07096V4.141H17.0312V2.07096C17.0312 1.95396 16.9009 1.88418 16.8035 1.94907L15.4359 2.86078C15.3375 2.92639 15.2093 2.92639 15.1109 2.86078L13.6781 1.90559C13.5797 1.83998 13.4515 1.83998 13.3531 1.90559L11.9203 2.86078C11.8219 2.92639 11.6937 2.92639 11.5953 2.86078L10.1625 1.90559C10.0641 1.83998 9.9359 1.83998 9.83749 1.90559L8.40874 2.85809C8.30831 2.92504 8.17709 2.92355 8.07821 2.85433L6.7285 1.90944C6.63148 1.84152 6.50312 1.83869 6.4032 1.90227L4.88757 2.86668C4.7897 2.92895 4.6643 2.92761 4.56778 2.86327L3.19649 1.94907C3.09914 1.88418 2.96875 1.95396 2.96875 2.07096Z" fill="#CDD6E1"/>
</svg>
