<svg width="20" height="20" viewBox="0 0 20 20" fill="none" xmlns="http://www.w3.org/2000/svg">
<path d="M12.3803 7.08675H3.94267C2.46147 7.08675 1.25 5.77489 1.25 4.17094C1.25 2.56698 2.46147 1.25 3.94267 1.25H12.3803V7.08675Z" fill="#44D48C"/>
<path d="M12.3803 12.9184H3.94267C2.46147 12.9184 1.25 11.6065 1.25 10.0026C1.25 8.39862 2.46147 7.08676 3.94267 7.08676H12.3803V12.9235V12.9184Z" fill="#FFC300"/>
<path d="M12.3803 18.75H3.94267C2.46147 18.75 1.25 17.4382 1.25 15.8342C1.25 14.2303 2.46147 12.9184 3.94267 12.9184H12.3803V18.7551V18.75Z" fill="#4C7AFB"/>
<path d="M15.6172 7.08675H12.3898C10.9086 7.08675 9.69714 5.77489 9.69714 4.17094C9.69714 2.56699 10.9086 1.25513 12.3898 1.25513H17.1268C18.0118 1.25513 18.7311 2.03917 18.7311 2.99232V5.34956C18.7311 6.30784 18.007 7.08675 17.1268 7.08675H15.6172Z" fill="#18BC7B"/>
<path d="M18.75 5.82614H12.3661C11.5238 5.82614 10.8376 5.0831 10.8376 4.17094C10.8376 3.25879 11.5238 2.51575 12.3661 2.51575H18.75" fill="#EEF0F4"/>
<path d="M15.6172 12.9184H12.3898C10.9086 12.9184 9.69714 11.6065 9.69714 10.0026C9.69714 8.39862 10.9086 7.08676 12.3898 7.08676H17.1268C18.0118 7.08676 18.7311 7.8708 18.7311 8.82395V11.1812C18.7311 12.1395 18.007 12.9184 17.1268 12.9184H15.6172Z" fill="#FF8700"/>
<path d="M18.75 11.6527H12.3661C11.5238 11.6527 10.8376 10.9096 10.8376 9.99748C10.8376 9.08533 11.5238 8.34229 12.3661 8.34229H18.75" fill="#EEF0F4"/>
<path d="M15.6172 18.75H12.3898C10.9086 18.75 9.69714 17.4382 9.69714 15.8342C9.69714 14.2303 10.9086 12.9184 12.3898 12.9184H17.1268C18.0118 12.9184 18.7311 13.7024 18.7311 14.6556V17.0128C18.7311 17.9711 18.007 18.75 17.1268 18.75H15.6172Z" fill="#1B55F6"/>
<path d="M18.75 17.4843H12.3661C11.5238 17.4843 10.8376 16.7412 10.8376 15.8291C10.8376 14.9169 11.5238 14.1739 12.3661 14.1739H18.75" fill="#EEF0F4"/>
</svg>
