<svg width="20" height="20" viewBox="0 0 20 20" fill="none" xmlns="http://www.w3.org/2000/svg">
<path d="M17.0764 2.8446H2.92356C2.34446 2.8446 1.875 3.28249 1.875 3.82264V18.397C1.875 18.9371 2.34446 19.375 2.92356 19.375H17.0764C17.6555 19.375 18.125 18.9371 18.125 18.397V3.82264C18.125 3.28249 17.6555 2.8446 17.0764 2.8446Z" fill="#4C7AFB"/>
<path d="M16.381 4.27365H3.61893V17.7331H16.381V4.27365Z" fill="white"/>
<path d="M5.35751 5.33277V2.71791C5.35751 2.33784 5.68892 2.02872 6.0964 2.02872H13.9036C14.311 2.02872 14.6425 2.33784 14.6425 2.71791V5.33784H5.35751V5.33277Z" fill="#D5D8DC"/>
<path d="M10.0027 3.51351C10.8578 3.51351 11.5511 2.8669 11.5511 2.06926C11.5511 1.27162 10.8578 0.625 10.0027 0.625C9.14753 0.625 8.45428 1.27162 8.45428 2.06926C8.45428 2.8669 9.14753 3.51351 10.0027 3.51351Z" fill="#D5D8DC"/>
<path d="M10.0027 2.90539C10.4978 2.90539 10.8992 2.53103 10.8992 2.06924C10.8992 1.60745 10.4978 1.23309 10.0027 1.23309C9.50764 1.23309 9.10629 1.60745 9.10629 2.06924C9.10629 2.53103 9.50764 2.90539 10.0027 2.90539Z" fill="#949BA8"/>
<path fill-rule="evenodd" clip-rule="evenodd" d="M5.6192 8.42906C5.6192 8.18054 5.82067 7.97906 6.0692 7.97906H13.9307C14.1792 7.97906 14.3807 8.18054 14.3807 8.42906C14.3807 8.67759 14.1792 8.87906 13.9307 8.87906H6.0692C5.82067 8.87906 5.6192 8.67759 5.6192 8.42906Z" fill="#949BA8"/>
<path fill-rule="evenodd" clip-rule="evenodd" d="M5.6192 10.7753C5.6192 10.5268 5.82067 10.3253 6.0692 10.3253H13.9307C14.1792 10.3253 14.3807 10.5268 14.3807 10.7753C14.3807 11.0239 14.1792 11.2253 13.9307 11.2253H6.0692C5.82067 11.2253 5.6192 11.0239 5.6192 10.7753Z" fill="#949BA8"/>
<path fill-rule="evenodd" clip-rule="evenodd" d="M5.6192 13.1166C5.6192 12.868 5.82067 12.6666 6.0692 12.6666H10.5079C10.7565 12.6666 10.9579 12.868 10.9579 13.1166C10.9579 13.3651 10.7565 13.5666 10.5079 13.5666H6.0692C5.82067 13.5666 5.6192 13.3651 5.6192 13.1166Z" fill="#949BA8"/>
</svg>
