<svg width="20" height="20" viewBox="0 0 20 20" fill="none" xmlns="http://www.w3.org/2000/svg">
<path d="M1.25 5C1.25 4.30964 1.80964 3.75 2.5 3.75H17.5C18.1904 3.75 18.75 4.30964 18.75 5V6.25H1.25V5Z" fill="#CFDBE9"/>
<path d="M1.25 6.25C1.25 5.55964 1.80964 5 2.5 5H17.5C18.1904 5 18.75 5.55964 18.75 6.25V7.5H1.25V6.25Z" fill="#EEF0F4"/>
<path d="M8.75 2.5C8.75 2.15482 9.02982 1.875 9.375 1.875H13.125C13.4702 1.875 13.75 2.15482 13.75 2.5V3.75H8.75V2.5Z" fill="#44D48C"/>
<path d="M5 3.75C5 3.40482 5.27982 3.125 5.625 3.125H9.375C9.72018 3.125 10 3.40482 10 3.75V5H5V3.75Z" fill="#4C7AFB"/>
<path d="M1.25 5C1.25 4.65482 1.52982 4.375 1.875 4.375H5.625C5.97018 4.375 6.25 4.65482 6.25 5V6.25H1.25V5Z" fill="#FC3B3B"/>
<path d="M1.25 6.25H17.5C18.1904 6.25 18.75 6.80964 18.75 7.5V16.25C18.75 16.9404 18.1904 17.5 17.5 17.5H2.5C1.80964 17.5 1.25 16.9404 1.25 16.25V6.25Z" fill="#FFC300"/>
</svg>
