<svg width="20" height="20" viewBox="0 0 20 20" fill="none" xmlns="http://www.w3.org/2000/svg">
<g opacity="0.6">
<path d="M2.03125 8.22915C2.03125 7.25114 2.82408 6.45831 3.80208 6.45831H16.1979C17.1759 6.45831 17.9688 7.25114 17.9688 8.22915V15.3125C17.9688 16.2905 17.1759 17.0833 16.1979 17.0833H3.80208C2.82408 17.0833 2.03125 16.2905 2.03125 15.3125V8.22915Z" fill="#44D48C"/>
<path fill-rule="evenodd" clip-rule="evenodd" d="M16.1979 7.78644H3.80208C3.55758 7.78644 3.35938 7.98465 3.35938 8.22915V15.3125C3.35938 15.557 3.55758 15.7552 3.80208 15.7552H16.1979C16.4424 15.7552 16.6406 15.557 16.6406 15.3125V8.22915C16.6406 7.98465 16.4424 7.78644 16.1979 7.78644ZM3.80208 6.45831C2.82408 6.45831 2.03125 7.25114 2.03125 8.22915V15.3125C2.03125 16.2905 2.82408 17.0833 3.80208 17.0833H16.1979C17.1759 17.0833 17.9688 16.2905 17.9688 15.3125V8.22915C17.9688 7.25114 17.1759 6.45831 16.1979 6.45831H3.80208Z" fill="#31BA75"/>
<path d="M5.57292 8.22915C5.57292 9.20715 4.78009 9.99998 3.80208 9.99998C2.82408 9.99998 2.03125 9.20715 2.03125 8.22915C2.03125 7.25114 2.82408 6.45831 3.80208 6.45831C4.78009 6.45831 5.57292 7.25114 5.57292 8.22915Z" fill="#31BA75"/>
<path d="M5.57292 15.3121C5.57292 16.2901 4.78009 17.0829 3.80208 17.0829C2.82408 17.0829 2.03125 16.2901 2.03125 15.3121C2.03125 14.3341 2.82408 13.5413 3.80208 13.5413C4.78009 13.5413 5.57292 14.3341 5.57292 15.3121Z" fill="#31BA75"/>
<path d="M17.9687 8.22915C17.9687 9.20715 17.1758 9.99998 16.1978 9.99998C15.2198 9.99998 14.427 9.20715 14.427 8.22915C14.427 7.25114 15.2198 6.45831 16.1978 6.45831C17.1758 6.45831 17.9687 7.25114 17.9687 8.22915Z" fill="#31BA75"/>
<path d="M17.9687 15.3121C17.9687 16.2901 17.1759 17.0829 16.1979 17.0829C15.2199 17.0829 14.4271 16.2901 14.4271 15.3121C14.4271 14.3341 15.2199 13.5413 16.1979 13.5413C17.1759 13.5413 17.9687 14.3341 17.9687 15.3121Z" fill="#31BA75"/>
<path fill-rule="evenodd" clip-rule="evenodd" d="M8.31064 10.0227C8.5426 9.9454 8.79331 10.0708 8.87063 10.3027L9.33606 11.699L9.80148 10.3027C9.86174 10.1219 10.0309 10 10.2215 10C10.412 10 10.5812 10.1219 10.6415 10.3027L11.1069 11.699L11.5723 10.3027C11.6496 10.0708 11.9004 9.9454 12.1323 10.0227C12.3643 10.1 12.4896 10.3507 12.4123 10.5827L11.5269 13.239C11.4666 13.4197 11.2974 13.5417 11.1069 13.5417C10.9163 13.5417 10.7472 13.4197 10.6869 13.239L10.2215 11.8427L9.75605 13.239C9.69579 13.4197 9.52661 13.5417 9.33606 13.5417C9.1455 13.5417 8.97633 13.4197 8.91607 13.239L8.03065 10.5827C7.95333 10.3507 8.07869 10.1 8.31064 10.0227Z" fill="white"/>
<path fill-rule="evenodd" clip-rule="evenodd" d="M7.34375 11.7704C7.34375 11.5259 7.54196 11.3277 7.78646 11.3277H8.67188C8.91638 11.3277 9.11458 11.5259 9.11458 11.7704C9.11458 12.0149 8.91638 12.2131 8.67188 12.2131H7.78646C7.54196 12.2131 7.34375 12.0149 7.34375 11.7704Z" fill="white"/>
<path fill-rule="evenodd" clip-rule="evenodd" d="M11.3281 11.7704C11.3281 11.5259 11.5263 11.3277 11.7708 11.3277H12.6563C12.9008 11.3277 13.099 11.5259 13.099 11.7704C13.099 12.0149 12.9008 12.2131 12.6563 12.2131H11.7708C11.5263 12.2131 11.3281 12.0149 11.3281 11.7704Z" fill="white"/>
</g>
<path d="M2.03125 4.68749C2.03125 3.70949 2.82408 2.91666 3.80208 2.91666H16.1979C17.1759 2.91666 17.9688 3.70949 17.9688 4.68749V11.7708C17.9688 12.7488 17.1759 13.5417 16.1979 13.5417H3.80208C2.82408 13.5417 2.03125 12.7488 2.03125 11.7708V4.68749Z" fill="#44D48C"/>
<path fill-rule="evenodd" clip-rule="evenodd" d="M16.1979 4.24478H3.80208C3.55758 4.24478 3.35938 4.44299 3.35938 4.68749V11.7708C3.35938 12.0153 3.55758 12.2135 3.80208 12.2135H16.1979C16.4424 12.2135 16.6406 12.0153 16.6406 11.7708V4.68749C16.6406 4.44299 16.4424 4.24478 16.1979 4.24478ZM3.80208 2.91666C2.82408 2.91666 2.03125 3.70949 2.03125 4.68749V11.7708C2.03125 12.7488 2.82408 13.5417 3.80208 13.5417H16.1979C17.1759 13.5417 17.9688 12.7488 17.9688 11.7708V4.68749C17.9688 3.70949 17.1759 2.91666 16.1979 2.91666H3.80208Z" fill="#31BA75"/>
<path d="M5.57292 4.68749C5.57292 5.66549 4.78009 6.45832 3.80208 6.45832C2.82408 6.45832 2.03125 5.66549 2.03125 4.68749C2.03125 3.70949 2.82408 2.91666 3.80208 2.91666C4.78009 2.91666 5.57292 3.70949 5.57292 4.68749Z" fill="#31BA75"/>
<path d="M5.57292 11.7704C5.57292 12.7484 4.78009 13.5412 3.80208 13.5412C2.82408 13.5412 2.03125 12.7484 2.03125 11.7704C2.03125 10.7924 2.82408 9.99957 3.80208 9.99957C4.78009 9.99957 5.57292 10.7924 5.57292 11.7704Z" fill="#31BA75"/>
<path d="M17.9687 4.68749C17.9687 5.66549 17.1758 6.45832 16.1978 6.45832C15.2198 6.45832 14.427 5.66549 14.427 4.68749C14.427 3.70949 15.2198 2.91666 16.1978 2.91666C17.1758 2.91666 17.9687 3.70949 17.9687 4.68749Z" fill="#31BA75"/>
<path d="M17.9687 11.7704C17.9687 12.7484 17.1759 13.5412 16.1979 13.5412C15.2199 13.5412 14.4271 12.7484 14.4271 11.7704C14.4271 10.7924 15.2199 9.99957 16.1979 9.99957C17.1759 9.99957 17.9687 10.7924 17.9687 11.7704Z" fill="#31BA75"/>
<path fill-rule="evenodd" clip-rule="evenodd" d="M8.31064 6.48106C8.5426 6.40374 8.79331 6.5291 8.87063 6.76105L9.33606 8.15733L9.80148 6.76105C9.86174 6.58028 10.0309 6.45834 10.2215 6.45834C10.412 6.45834 10.5812 6.58028 10.6415 6.76105L11.1069 8.15733L11.5723 6.76105C11.6496 6.5291 11.9004 6.40374 12.1323 6.48106C12.3643 6.55838 12.4896 6.80909 12.4123 7.04105L11.5269 9.6973C11.4666 9.87807 11.2974 10 11.1069 10C10.9163 10 10.7472 9.87807 10.6869 9.6973L10.2215 8.30102L9.75605 9.6973C9.69579 9.87807 9.52661 10 9.33606 10C9.1455 10 8.97633 9.87807 8.91607 9.6973L8.03065 7.04105C7.95333 6.80909 8.07869 6.55838 8.31064 6.48106Z" fill="white"/>
<path fill-rule="evenodd" clip-rule="evenodd" d="M7.34375 8.22875C7.34375 7.98425 7.54196 7.78604 7.78646 7.78604H8.67188C8.91638 7.78604 9.11458 7.98425 9.11458 8.22875C9.11458 8.47325 8.91638 8.67146 8.67188 8.67146H7.78646C7.54196 8.67146 7.34375 8.47325 7.34375 8.22875Z" fill="white"/>
<path fill-rule="evenodd" clip-rule="evenodd" d="M11.3281 8.22875C11.3281 7.98425 11.5263 7.78604 11.7708 7.78604H12.6563C12.9008 7.78604 13.099 7.98425 13.099 8.22875C13.099 8.47325 12.9008 8.67146 12.6563 8.67146H11.7708C11.5263 8.67146 11.3281 8.47325 11.3281 8.22875Z" fill="white"/>
</svg>
