<svg width="20" height="20" viewBox="0 0 20 20" fill="none" xmlns="http://www.w3.org/2000/svg">
<path d="M14.8216 2.03125H5.17836C3.44026 2.03125 2.03125 3.44026 2.03125 5.17836V14.8216C2.03125 16.5597 3.44026 17.9688 5.17836 17.9688H14.8216C16.5597 17.9688 17.9688 16.5597 17.9688 14.8216V5.17836C17.9688 3.44026 16.5597 2.03125 14.8216 2.03125Z" fill="#CFDBE9"/>
<path d="M9.67514 6.05728C9.81946 5.80731 10.1802 5.80737 10.3246 6.05728L13.9603 12.3542C14.1046 12.6042 13.9238 12.9167 13.6351 12.9167H6.36459C6.11193 12.9167 5.94196 12.6772 6.00034 12.4499L6.0394 12.3542L9.67514 6.05728Z" stroke="#7AA4FF" stroke-width="1.25"/>
<path d="M9.67514 14.8281C9.81946 15.0781 10.1802 15.078 10.3246 14.8281L13.9603 8.53122C14.1046 8.28122 13.9238 7.96872 13.6351 7.96872H6.36459C6.11193 7.96872 5.94196 8.20816 6.00034 8.43552L6.0394 8.53122L9.67514 14.8281Z" stroke="#296DFF" stroke-width="1.25"/>
<circle cx="14.4271" cy="7.78657" r="0.885417" fill="#0057FF"/>
<circle cx="5.57292" cy="7.78657" r="0.885417" fill="#0057FF"/>
<circle cx="10" cy="5.13032" r="0.885417" fill="#7AA4FF"/>
<circle cx="5.57292" cy="13.0991" r="0.885417" fill="#7AA4FF"/>
<circle cx="14.4271" cy="13.0991" r="0.885417" fill="#7AA4FF"/>
<circle cx="10" cy="14.8699" r="0.885417" fill="#0057FF"/>
</svg>
