<svg width="20" height="20" viewBox="0 0 20 20" fill="none" xmlns="http://www.w3.org/2000/svg">
<path d="M13.8548 1.14584H2.60357C2.28748 1.14584 2.03125 1.42352 2.03125 1.76605V16.4631C2.03125 16.8057 2.28748 17.0833 2.60357 17.0833H13.8548C14.1708 17.0833 14.4271 16.8057 14.4271 16.4631V1.76605C14.4271 1.42352 14.1708 1.14584 13.8548 1.14584Z" fill="#D4DEE9"/>
<path d="M4.6875 10.9694C4.6875 10.7382 4.87499 10.5507 5.10628 10.5507H11.0649C11.2962 10.5507 11.4837 10.7382 11.4837 10.9694C11.4837 11.2007 11.2962 11.3882 11.0649 11.3882H5.10628C4.87499 11.3882 4.6875 11.2007 4.6875 10.9694Z" fill="#A7B6C8"/>
<path d="M4.6875 13.4821C4.6875 13.2508 4.87499 13.0633 5.10628 13.0633H11.0649C11.2962 13.0633 11.4837 13.2508 11.4837 13.4821C11.4837 13.7134 11.2962 13.9008 11.0649 13.9008H5.10628C4.87499 13.9008 4.6875 13.7134 4.6875 13.4821Z" fill="#A7B6C8"/>
<path fill-rule="evenodd" clip-rule="evenodd" d="M5.87091 3.82515C6.13769 3.742 6.42136 3.89085 6.50451 4.15763L7.12537 6.14957L7.74624 4.15763C7.81213 3.94622 8.00784 3.80223 8.22927 3.80223C8.45071 3.80223 8.64642 3.94622 8.71231 4.15763L9.33317 6.14957L9.95404 4.15763C10.0372 3.89085 10.3209 3.742 10.5876 3.82515C10.8544 3.9083 11.0033 4.19197 10.9201 4.45874L9.81621 8.00042C9.75032 8.21183 9.55461 8.35582 9.33317 8.35582C9.11174 8.35582 8.91603 8.21183 8.85014 8.00042L8.22927 6.00848L7.60841 8.00042C7.54251 8.21183 7.34681 8.35582 7.12537 8.35582C6.90394 8.35582 6.70823 8.21183 6.64234 8.00042L5.53844 4.45874C5.45529 4.19197 5.60414 3.9083 5.87091 3.82515Z" fill="#296DFF"/>
<path fill-rule="evenodd" clip-rule="evenodd" d="M4.6875 6.07877C4.6875 5.79934 4.91402 5.57281 5.19345 5.57281H6.29736C6.57679 5.57281 6.80331 5.79934 6.80331 6.07877C6.80331 6.3582 6.57679 6.58472 6.29736 6.58472H5.19345C4.91402 6.58472 4.6875 6.3582 4.6875 6.07877Z" fill="#296DFF"/>
<path fill-rule="evenodd" clip-rule="evenodd" d="M9.65485 6.07877C9.65485 5.79934 9.88137 5.57281 10.1608 5.57281H11.2647C11.5441 5.57281 11.7707 5.79934 11.7707 6.07877C11.7707 6.3582 11.5441 6.58472 11.2647 6.58472H10.1608C9.88137 6.58472 9.65485 6.3582 9.65485 6.07877Z" fill="#296DFF"/>
<path d="M17.9687 14.4271C17.9687 16.8721 15.9867 18.8542 13.5416 18.8542C11.0966 18.8542 9.11456 16.8721 9.11456 14.4271C9.11456 11.9821 11.0966 10 13.5416 10C15.9867 10 17.9687 11.9821 17.9687 14.4271Z" fill="#18BC7B"/>
<path fill-rule="evenodd" clip-rule="evenodd" d="M15.6187 13.0495C15.8007 13.2315 15.8007 13.5266 15.6187 13.7086L13.5217 15.8056C13.3397 15.9876 13.0446 15.9876 12.8626 15.8056L11.4646 14.4076C11.2826 14.2256 11.2826 13.9305 11.4646 13.7485C11.6466 13.5665 11.9417 13.5665 12.1237 13.7485L13.1922 14.817L14.9597 13.0495C15.1417 12.8675 15.4367 12.8675 15.6187 13.0495Z" fill="white"/>
</svg>
