<svg width="24" height="24" viewBox="0 0 24 24" fill="none" xmlns="http://www.w3.org/2000/svg">
<path d="M18.3438 9.99026C18.3437 9.92975 18.3132 9.86004 18.2402 9.81057L12.1729 5.70803C12.0712 5.63942 11.9288 5.63942 11.8271 5.70803L5.75977 9.81057C5.68676 9.86004 5.65626 9.92975 5.65625 9.99026V17.669C5.65645 18.011 5.95831 18.3438 6.40039 18.3438H9.01074V13.6748C9.01074 12.7916 9.75333 12.1311 10.5996 12.1309H13.4004C14.2467 12.1311 14.9893 12.7916 14.9893 13.6748V18.3438H17.5996C18.0417 18.3438 18.3435 18.011 18.3438 17.669V9.99026ZM19.6562 17.669C19.6561 18.7972 18.7037 19.6563 17.5996 19.6563H14.333C13.9707 19.6561 13.6768 19.3624 13.6768 19V13.6748C13.6768 13.5778 13.5846 13.4436 13.4004 13.4434H10.5996C10.4154 13.4436 10.3232 13.5778 10.3232 13.6748V19C10.3232 19.3624 10.0293 19.6561 9.66699 19.6563H6.40039C5.29633 19.6563 4.34394 18.7972 4.34375 17.669V9.99026C4.34376 9.47641 4.60543 9.0072 5.02441 8.72366L11.0918 4.62112C11.6377 4.25194 12.3623 4.25194 12.9082 4.62112L18.9756 8.72366C19.3946 9.0072 19.6562 9.47641 19.6562 9.99026V17.669Z" fill="#292C32"/>
</svg>
