<svg width="24" height="24" viewBox="0 0 24 24" fill="none" xmlns="http://www.w3.org/2000/svg">
<path d="M3.7522 12.1449C3.7522 7.56572 7.49755 3.86569 12.1028 3.86562C12.517 3.86562 12.8528 4.20141 12.8528 4.61562C12.8527 5.02973 12.5169 5.36562 12.1028 5.36562C8.31262 5.36569 5.2522 8.40744 5.2522 12.1449C5.25226 15.8823 8.31266 18.9241 12.1028 18.9242C15.893 18.9242 18.9533 15.8824 18.9534 12.1449C18.9534 11.7308 19.2893 11.3951 19.7034 11.3949C20.1176 11.3949 20.4534 11.7307 20.4534 12.1449C20.4533 16.7241 16.708 20.4242 12.1028 20.4242C7.49759 20.4241 3.75226 16.7241 3.7522 12.1449ZM7.55298 12.1449C7.55298 9.64491 9.59643 7.63034 12.1028 7.63027C12.517 7.63027 12.8528 7.96605 12.8528 8.38027C12.8527 8.7944 12.5169 9.13027 12.1028 9.13027C10.4115 9.13034 9.05298 10.4866 9.05298 12.1449C9.05304 13.8032 10.4115 15.1595 12.1028 15.1596C13.7941 15.1596 15.1535 13.8032 15.1536 12.1449C15.1536 11.7307 15.4894 11.3949 15.9036 11.3949C16.3176 11.3951 16.6536 11.7308 16.6536 12.1449C16.6535 14.6449 14.6092 16.6596 12.1028 16.6596C9.59647 16.6595 7.55304 14.6449 7.55298 12.1449ZM17.3665 3.07265C17.5616 2.92709 17.818 2.88459 18.053 2.96328C18.3214 3.05326 18.5163 3.28661 18.5569 3.56679L18.8118 5.33925L20.6077 5.59414C20.8895 5.63418 21.1245 5.82985 21.2141 6.09999C21.3037 6.37042 21.2319 6.66903 21.0295 6.86953L18.0071 9.86367C17.8067 10.0622 17.5112 10.1318 17.2434 10.0434L15.6633 9.52089L12.6311 12.5258C12.3369 12.8172 11.8621 12.8149 11.5706 12.5209C11.279 12.2266 11.2812 11.7519 11.5754 11.4603L14.6028 8.45937L14.0813 6.90859C13.99 6.63741 14.0606 6.33749 14.2639 6.13613L17.2874 3.14101L17.3665 3.07265ZM15.6506 6.87246L16.054 8.0707L17.2776 8.47402L18.9006 6.8666L18.0461 6.74648C17.7162 6.69978 17.4561 6.44058 17.4084 6.11074L17.2844 5.25429L15.6506 6.87246Z" fill="#292C32"/>
</svg>
