<svg width="24" height="24" viewBox="0 0 24 24" fill="none" xmlns="http://www.w3.org/2000/svg">
<path d="M19.9998 18.2496C20.4138 18.2496 20.7495 18.5855 20.7498 18.9996C20.7498 19.4138 20.414 19.7496 19.9998 19.7496H3.99976C3.58571 19.7494 3.24976 19.4137 3.24976 18.9996C3.24997 18.5857 3.58584 18.2498 3.99976 18.2496H19.9998ZM19.9998 11.2496C20.4138 11.2496 20.7495 11.5855 20.7498 11.9996C20.7498 12.4138 20.414 12.7496 19.9998 12.7496H3.99976C3.58571 12.7494 3.24976 12.4137 3.24976 11.9996C3.24997 11.5857 3.58584 11.2498 3.99976 11.2496H19.9998ZM19.9998 4.24957C20.4138 4.24957 20.7495 4.58554 20.7498 4.99957C20.7498 5.41379 20.414 5.74957 19.9998 5.74957H3.99976C3.58571 5.74938 3.24976 5.41367 3.24976 4.99957C3.24997 4.58566 3.58584 4.24977 3.99976 4.24957H19.9998Z" fill="white"/>
</svg>
