<svg width="24" height="24" viewBox="0 0 24 24" fill="none" xmlns="http://www.w3.org/2000/svg">
<path d="M11.607 13.21C13.5287 13.21 15.4007 13.7221 16.8785 14.6514C18.5417 15.6982 19.5999 17.1901 19.939 18.9658C20.0168 19.3725 19.9118 19.7747 19.6509 20.0693C19.5324 20.2035 19.3835 20.3117 19.2154 20.3848L19.0865 20.4326C18.9552 20.4737 18.8172 20.4939 18.6783 20.4922H4.53569C4.39681 20.4939 4.25871 20.4737 4.12748 20.4326L3.99858 20.3848C3.83051 20.3118 3.68161 20.2044 3.56303 20.0703C3.30187 19.7756 3.197 19.3728 3.27494 18.9658C3.59287 17.301 4.54268 15.8858 6.0308 14.8525L6.33549 14.6514C7.81325 13.7217 9.68525 13.21 11.607 13.21ZM11.607 14.71C10.0427 14.71 8.54825 15.1027 7.36674 15.7812L7.13432 15.9209C5.87577 16.7134 5.10612 17.7711 4.80424 18.9922H18.4097C18.128 17.8523 17.4386 16.855 16.3247 16.083L16.0796 15.9209C14.8647 15.157 13.2754 14.71 11.607 14.71ZM11.8316 3.50488C12.9475 3.55602 13.9531 3.98842 14.6861 4.73535C15.4776 5.5421 15.8632 6.62856 15.772 7.79297L15.7505 8.00879C15.4744 10.2266 13.6593 11.996 11.607 11.9961C9.48837 11.9961 7.61935 10.1102 7.44096 7.79199C7.3566 6.69047 7.68855 5.6654 8.37846 4.88184L8.52104 4.72852C9.29929 3.93656 10.3952 3.5 11.607 3.5L11.8316 3.50488ZM11.607 5C10.7573 5 10.0604 5.30209 9.59135 5.7793C9.12542 6.25351 8.87842 6.90894 8.93705 7.67676L8.97416 7.98145C9.22887 9.47393 10.4628 10.4961 11.607 10.4961C12.826 10.496 14.1472 9.33457 14.2769 7.67578L14.2847 7.39941C14.2709 6.76585 14.0325 6.21095 13.6158 5.78613C13.1394 5.30062 12.4442 5.00002 11.607 5Z" fill="#292C32"/>
</svg>
