<svg width="68" height="20" viewBox="0 0 68 20" fill="none" xmlns="http://www.w3.org/2000/svg">
<path d="M4 0.5H64C65.933 0.5 67.5 2.067 67.5 4V16C67.5 17.933 65.933 19.5 64 19.5H4C2.067 19.5 0.5 17.933 0.5 16V4C0.5 2.067 2.067 0.5 4 0.5Z" stroke="white" stroke-opacity="0.4"/>
<path d="M10.7373 5.79297C12.8213 5.79834 14.3628 6.83496 14.3574 8.41406C14.3628 9.86963 13.1113 10.8418 11.3281 11.019V12.7969H15.1953V13.7744H6.32227V12.7969H10.1465V11.019C8.38477 10.8418 7.1333 9.86963 7.13867 8.41406C7.1333 6.83496 8.66943 5.79834 10.7373 5.79297ZM8.30957 8.41406C8.3042 9.46143 9.31934 10.0898 10.7373 10.0898C12.1768 10.0898 13.1865 9.46143 13.1865 8.41406C13.1865 7.39893 12.1768 6.75439 10.7373 6.75977C9.31934 6.75439 8.3042 7.39893 8.30957 8.41406ZM23.6709 7.33984V8.2959H16.9678V5.37402H18.1387V7.33984H23.6709ZM15.8184 9.99316V9.03711H24.6914V9.99316H15.8184ZM16.8711 11.5938V10.6699H23.6064V13.1514H18.085V13.9033H23.9287V14.8379H16.8818V12.2812H22.4248V11.5938H16.8711ZM28.4834 5.92188C30.0249 5.9165 31.1475 6.88867 31.1582 8.26367C31.1475 9.64404 30.0249 10.6108 28.4834 10.6162C26.958 10.6108 25.814 9.64404 25.8193 8.26367C25.814 6.88867 26.958 5.9165 28.4834 5.92188ZM25.3789 11.959C27.1299 11.959 29.5522 11.9375 31.6523 11.6367L31.749 12.5068C29.5737 12.9204 27.2427 12.9365 25.5293 12.9365L25.3789 11.959ZM27.001 8.26367C26.9956 9.07471 27.6348 9.57422 28.4834 9.57422C29.3428 9.57422 29.9819 9.07471 29.9873 8.26367C29.9819 7.45801 29.3481 6.95312 28.4834 6.95312C27.6348 6.95312 26.9956 7.45801 27.001 8.26367ZM32.2324 14.9668V5.24512H33.4248V14.9668H32.2324ZM37.8506 14V6.22266H40.7725C42.5557 6.22266 43.5063 7.30762 43.5117 8.80078C43.5063 10.2886 42.5449 11.3682 40.751 11.3682H39.2471V14H37.8506ZM39.2471 10.2188H40.5576C41.6104 10.2134 42.083 9.62256 42.083 8.80078C42.083 7.96826 41.6104 7.39355 40.5576 7.39355H39.2471V10.2188ZM46.0361 6.22266V14H44.6396V6.22266H46.0361ZM52.7285 8.84375C52.562 7.90918 51.8154 7.37207 50.8701 7.37207C49.5972 7.37207 48.6948 8.34961 48.7002 10.1113C48.6948 11.8999 49.6025 12.8506 50.8701 12.8506C51.7939 12.8506 52.5405 12.335 52.7285 11.4219H54.1357C53.9209 12.915 52.6909 14.1074 50.8486 14.1074C48.7969 14.1074 47.2876 12.6196 47.293 10.1113C47.2876 7.59766 48.813 6.11523 50.8486 6.11523C52.5674 6.11523 53.894 7.11426 54.1357 8.84375H52.7285ZM55.3389 14V6.22266H56.7354V9.7998H56.8428L59.8828 6.22266H61.5908L58.583 9.71387L61.623 14H59.9365L57.6055 10.6592L56.7354 11.6797V14H55.3389Z" fill="white"/>
</svg>
