<svg width="58" height="20" viewBox="0 0 58 20" fill="none" xmlns="http://www.w3.org/2000/svg">
<path d="M4 0.5H54C55.933 0.5 57.5 2.067 57.5 4V16C57.5 17.933 55.933 19.5 54 19.5H4C2.067 19.5 0.5 17.933 0.5 16V4C0.5 2.067 2.067 0.5 4 0.5Z" stroke="white" stroke-opacity="0.4"/>
<path d="M15.1953 12.8076V13.7852H6.32227V12.8076H10.1572V10.5732H11.3496V12.8076H15.1953ZM6.70898 10.0361C8.64258 9.71387 10.082 8.40332 10.1143 7.00684H7.06348V6.0293H14.4326V7.00684H11.3711C11.4087 8.40332 12.8481 9.68164 14.8408 9.98242L14.3682 10.9277C12.73 10.6323 11.3818 9.76221 10.7534 8.54834C10.1304 9.77832 8.79834 10.6753 7.18164 10.9814L6.70898 10.0361ZM23.918 5.24512V14.9561H22.7256V5.24512H23.918ZM15.8721 12.2598C16.6455 12.2544 17.521 12.2544 18.4395 12.2275V11.3359C17.3491 11.1641 16.6348 10.498 16.6348 9.57422C16.6348 8.47852 17.6069 7.75342 19.0195 7.74805C20.4482 7.75342 21.4365 8.47852 21.4365 9.57422C21.4365 10.4927 20.7222 11.1533 19.6318 11.3306V12.1846C20.4858 12.147 21.3452 12.0771 22.1562 11.9697L22.2422 12.8613C20.1099 13.2212 17.7896 13.248 16.0439 13.248L15.8721 12.2598ZM16.0762 7.30762V6.3623H18.4395V5.27734H19.6318V6.3623H21.9844V7.30762H16.0762ZM17.7734 9.57422C17.7627 10.1328 18.2837 10.4604 19.0195 10.4551C19.7769 10.4604 20.2925 10.1328 20.2871 9.57422C20.2925 9.01025 19.7769 8.6665 19.0195 8.66113C18.2837 8.6665 17.7627 9.01025 17.7734 9.57422ZM30.3955 6.05078C30.3901 7.27002 31.7598 8.51074 33.833 8.7793L33.3604 9.74609C31.7114 9.49902 30.4009 8.68799 29.7671 7.59229C29.1333 8.68799 27.8281 9.49902 26.1953 9.74609L25.7227 8.7793C27.7744 8.51074 29.1387 7.28076 29.1387 6.05078V5.55664H30.3955V6.05078ZM25.3359 11.5723V10.584H34.1875V11.5723H30.3311V14.9561H29.1494V11.5723H25.3359ZM42.7598 6.22266H44.167V11.3037C44.1616 12.9741 42.9048 14.1182 41.0088 14.1182C39.1021 14.1182 37.856 12.9741 37.8506 11.3037V6.22266H39.2471V11.1855C39.2524 12.1685 39.9346 12.8667 41.0088 12.8721C42.083 12.8667 42.7598 12.1685 42.7598 11.1855V6.22266ZM45.6064 14V6.22266H48.5283C50.3115 6.22266 51.2622 7.30762 51.2676 8.80078C51.2622 10.2886 50.3008 11.3682 48.5068 11.3682H47.0029V14H45.6064ZM47.0029 10.2188H48.3135C49.3662 10.2134 49.8389 9.62256 49.8389 8.80078C49.8389 7.96826 49.3662 7.39355 48.3135 7.39355H47.0029V10.2188Z" fill="white"/>
</svg>
