<svg width="48" height="20" viewBox="0 0 48 20" fill="none" xmlns="http://www.w3.org/2000/svg">
<path d="M4 0.5H44C45.933 0.5 47.5 2.067 47.5 4V16C47.5 17.933 45.933 19.5 44 19.5H4C2.067 19.5 0.5 17.933 0.5 16V4C0.5 2.067 2.067 0.5 4 0.5Z" stroke="white" stroke-opacity="0.4"/>
<path d="M6.71973 14V6.22266H11.7793V7.39355H8.11621V9.52051H11.5107V10.6914H8.11621V12.8184H11.8008V14H6.71973ZM14.1533 6.22266L16.1729 12.3564H16.2588L18.2891 6.22266H19.8252L17.0752 14H15.3564L12.6172 6.22266H14.1533ZM20.749 14V6.22266H25.8086V7.39355H22.1455V9.52051H25.54V10.6914H22.1455V12.8184H25.8301V14H20.749ZM33.543 6.22266V14H32.2969L28.6123 8.68262H28.5479V14H27.1514V6.22266H28.4189L32.082 11.54H32.1572V6.22266H33.543ZM34.6387 7.39355V6.22266H40.8369V7.39355H38.4414V14H37.0449V7.39355H34.6387Z" fill="white"/>
</svg>
