<svg width="72" height="20" viewBox="0 0 72 20" fill="none" xmlns="http://www.w3.org/2000/svg">
<path d="M4 0.5H68C69.933 0.5 71.5 2.067 71.5 4V16C71.5 17.933 69.933 19.5 68 19.5H4C2.067 19.5 0.5 17.933 0.5 16V4C0.5 2.067 2.067 0.5 4 0.5Z" stroke="white" stroke-opacity="0.4"/>
<path d="M15.1846 10.7451V11.7119H11.3174V14.9453H10.1357V11.7119H6.31152V10.7451H15.1846ZM7.39648 9.60645V5.73926H14.0996V9.60645H7.39648ZM8.56738 8.67188H12.9072V6.69531H8.56738V8.67188ZM24.7021 12.8398V13.8281H15.8291V12.8398H18.1816V11.2393H16.8818V8.07031H22.4678V6.87793H16.8604V5.91113H23.6494V9.02637H18.0742V10.2725H23.875V11.2393H22.457V12.8398H24.7021ZM19.3418 12.8398H21.2861V11.2393H19.3418V12.8398ZM33.0381 5.99707C33.0381 8.64502 31.8296 10.498 28.6016 11.5508L28.1396 10.6162C29.6274 10.1328 30.5728 9.50439 31.126 8.7417L28.3008 8.97266L28.1182 8.02734L31.5771 7.8877C31.6792 7.59766 31.7437 7.28613 31.7759 6.96387H28.6123V5.99707H33.0381ZM29.7832 14.7627V11.7227H30.9863V13.7959H36.3359V14.7627H29.7832ZM32.9951 9.21973V8.24219H34.8857V5.25586H36.0781V12.4316H34.8857V9.21973H32.9951ZM43.082 6.1582V7.125H42.083V11.5615C42.5181 11.5293 42.9424 11.4917 43.3506 11.4434L43.415 12.3027C41.4438 12.6411 39.188 12.6787 37.5176 12.6787L37.3994 11.6904C37.7593 11.6851 38.1514 11.6851 38.5596 11.6797V7.125H37.6787V6.1582H43.082ZM39.7305 11.6582C40.1279 11.6528 40.5308 11.6367 40.9336 11.6206V7.125H39.7305V11.6582ZM42.7812 9.78906V8.82227H44.4141V5.24512H45.5957V14.9561H44.4141V9.78906H42.7812ZM51.7188 5.91113V8.91895H48.5391V10.1436C50.145 10.1382 51.2192 10.0845 52.4277 9.88574L52.5244 10.8633C51.1816 11.0728 50 11.105 48.1309 11.1104H47.3359V7.99512H50.5264V6.86719H47.3252V5.91113H51.7188ZM48.668 14.7627V11.8301H49.8604V13.7959H55.3496V14.7627H48.668ZM52.2451 8.66113V7.65137H53.8994V5.25586H55.0918V12.3994H53.8994V8.66113H52.2451ZM61.4834 6.57715C61.4834 8.07568 62.9497 9.58496 64.9854 9.93945L64.4482 10.9385C62.8208 10.6001 61.4888 9.61182 60.855 8.30664C60.2158 9.60107 58.8838 10.5947 57.2617 10.9385L56.7354 9.93945C58.7388 9.57422 60.2104 8.07031 60.2158 6.57715V5.85742H61.4834V6.57715ZM56.4668 13.7207V12.7324H65.3398V13.7207H56.4668Z" fill="white"/>
</svg>
