<svg viewBox="0 0 18 18" xmlns="http://www.w3.org/2000/svg">
<g transform="translate(0.5616,15.0642)">
<path id="Vector" d="M2.26337 0.11122C2.41166 0.259513 2.41166 0.499063 2.26337 0.647357L0.651159 2.25957C0.502866 2.40786 0.263315 2.40786 0.115022 2.25957H0.11122C-0.0370733 2.11128 -0.0370733 1.87172 0.11122 1.72343L1.72343 0.11122C1.87173 -0.0370733 2.11128 -0.0370733 2.25957 0.11122H2.26337Z" fill="#313D4C"/>
</g>
<g transform="translate(9.4518,0.5634)">
<path id="Vector" d="M3.99251 7.98502C6.19751 7.98502 7.98502 6.19751 7.98502 3.99251C7.98502 1.78751 6.19751 0 3.99251 0C1.78751 0 0 1.78751 0 3.99251C0 6.19751 1.78751 7.98502 3.99251 7.98502Z" fill="#313D4C"/>
</g>
<g transform="translate(8.604,4.1094)">
<path id="Vector" d="M0.707244 0.0735225C0.756676 -0.01013 0.874549 -0.0253399 0.946795 0.0431031L5.24349 4.3398C5.31194 4.40824 5.30053 4.52612 5.21307 4.57935L4.03433 5.2866L0 1.25226L0.707244 0.0735225Z" fill="#AFB7C0"/>
</g>
<g transform="translate(0.8406,5.3604)">
<path id="Vector" d="M7.76436 0L11.7987 4.03433L3.59695 11.5022C3.14826 11.9129 2.45243 11.8977 2.02276 11.4642L0.334498 9.77594C-0.0951722 9.34627 -0.114184 8.65043 0.296474 8.20175L7.76436 0Z" fill="#4E5968"/>
</g>
<g transform="translate(8.5734,8.2854)">
<path id="Vector" d="M0.570358 1.14072C0.885358 1.14072 1.14072 0.885358 1.14072 0.570358C1.14072 0.255358 0.885358 0 0.570358 0C0.255358 0 0 0.255358 0 0.570358C0 0.885358 0.255358 1.14072 0.570358 1.14072Z" fill="#AFB7C0"/>
</g>
<g transform="translate(6.4206,9.63)">
<path id="Vector" d="M1.78047 0.168256C2.00481 0.392597 2.00481 0.753823 1.78047 0.974362L0.974362 1.78047C0.750021 2.00481 0.388794 2.00481 0.168256 1.78047C-0.0560852 1.55613 -0.0560852 1.1949 0.168256 0.974362L0.974362 0.168256C1.1987 -0.0560852 1.55993 -0.0560852 1.78047 0.168256Z" fill="#AFB7C0"/>
</g>
</svg>